<?xml version="1.0" encoding="UTF-8"?>
<svg version="1.1" xmlns="http://www.w3.org/2000/svg" width="500" height="500">
<path d="M0 0 C1.94996827 -0.00456939 3.89993493 -0.0098772 5.84989929 -0.0158844 C9.9256344 -0.02478804 14.00117329 -0.02242462 18.0769043 -0.01245117 C23.26807847 -0.0009784 28.45857067 -0.02116133 33.64965534 -0.05036831 C37.67431352 -0.06882669 41.69881126 -0.06841852 45.72350121 -0.06273079 C47.63582502 -0.06257868 49.54816048 -0.06853046 51.4604435 -0.08102226 C68.54837432 -0.1769217 83.24348839 1.97746472 96.26171875 14.18359375 C105.38793653 23.84447883 110.22594641 35.47161616 110.07421875 48.68359375 C110.06970703 49.42867187 110.06519531 50.17375 110.06054688 50.94140625 C110.04881121 52.77217015 110.03087725 54.60289248 110.01171875 56.43359375 C111.91679199 56.41002808 111.91679199 56.41002808 113.86035156 56.38598633 C118.62395757 56.33121619 123.38753639 56.29707418 128.15136719 56.26879883 C130.20349832 56.25381859 132.25559802 56.23342729 134.30761719 56.20727539 C152.25107075 55.984511 167.92510824 56.77727684 181.82421875 69.68359375 C196.81926359 86.25128963 196.60886692 105.07324479 196.47265625 126.20703125 C196.47026753 128.66801863 196.46936741 131.12900785 196.46987915 133.58999634 C196.46677117 138.71180868 196.45034673 143.83333711 196.42333984 148.95507812 C196.38911044 155.5303006 196.38171947 162.10521601 196.38323021 168.6805172 C196.38268796 173.74525906 196.37174831 178.80993339 196.35722733 183.87465286 C196.35085536 186.30124019 196.3469195 188.72783515 196.34543991 191.15443039 C196.34112545 194.52675369 196.3236719 197.89874387 196.30224609 201.27099609 C196.30315247 202.2766008 196.30405884 203.28220551 196.30499268 204.31828308 C196.29646271 205.23188095 196.28793274 206.14547882 196.27914429 207.08676147 C196.2757926 207.88268896 196.27244091 208.67861645 196.26898766 209.49866295 C196.01171875 211.43359375 196.01171875 211.43359375 194.01171875 213.43359375 C190.32414134 213.40239597 189.14526859 212.56925338 186.5390625 209.921875 C185.67030688 208.86776925 184.80728344 207.80892028 183.94921875 206.74609375 C177.79737748 199.57177696 170.4960006 194.90010989 161.01171875 193.43359375 C158.01486602 193.28816892 155.02142716 193.28986109 152.02148438 193.29174805 C151.12480042 193.28827362 150.22811646 193.28479919 149.30426025 193.28121948 C147.36017982 193.27387961 145.41609109 193.26852482 143.47200012 193.26492882 C140.38470773 193.257735 137.29757167 193.24204435 134.21032715 193.22358704 C125.43320933 193.17127093 116.65617647 193.12320903 107.87890625 193.10766602 C102.50426729 193.09752626 97.13002175 193.06804797 91.75553894 193.02634621 C89.71765635 193.01411344 87.679718 193.00890067 85.64179993 193.01114464 C67.78975626 193.02595809 53.01410915 190.97595068 39.32421875 178.37109375 C29.84621907 168.42255507 25.88987261 157.56286899 25.9765625 144.171875 C25.97910034 143.42764282 25.98163818 142.68341064 25.98425293 141.91662598 C25.99085108 140.08893755 26.00093879 138.2612623 26.01171875 136.43359375 C18.93130775 136.500942 11.85143388 136.59088289 4.77148438 136.69604492 C2.36627603 136.72916339 -0.03900759 136.75723542 -2.44433594 136.7800293 C-5.91503784 136.81381616 -9.38505798 136.8661447 -12.85546875 136.921875 C-14.45139359 136.93145988 -14.45139359 136.93145988 -16.07955933 136.9412384 C-26.68197177 137.14692811 -35.80271982 139.43131926 -43.98828125 146.43359375 C-46.63309173 149.34367714 -49.16061248 152.27476924 -51.62890625 155.3359375 C-53.98828125 157.43359375 -53.98828125 157.43359375 -56.72265625 157.375 C-58.98828125 156.43359375 -58.98828125 156.43359375 -59.98828125 154.43359375 C-60.08877535 152.95521065 -60.12767846 151.47242071 -60.13545227 149.99064636 C-60.14260757 149.0558847 -60.14976288 148.12112305 -60.15713501 147.15803528 C-60.15982391 146.12901596 -60.16251282 145.09999664 -60.1652832 144.03979492 C-60.1718544 142.9582312 -60.1784256 141.87666748 -60.18519592 140.7623291 C-60.2049741 137.1670729 -60.21660601 133.5718587 -60.2265625 129.9765625 C-60.23267579 128.13363334 -60.23267579 128.13363334 -60.23891258 126.25347328 C-60.25764374 120.41379815 -60.27219906 114.57413951 -60.28052455 108.73444003 C-60.2892945 102.68392641 -60.30848385 96.63366534 -60.3449707 90.58325195 C-60.38353471 84.08402483 -60.40222565 77.58502502 -60.40672874 71.08568764 C-60.41158087 68.61513333 -60.42315529 66.14458221 -60.44176674 63.67409325 C-60.57890896 44.25114934 -59.53054614 28.7528479 -45.80078125 13.68359375 C-32.24188877 1.03673439 -17.49282961 -0.03600407 0 0 Z M-25.98828125 39.43359375 C-28.09500749 42.79965971 -28.26296645 45.53386249 -28.32299805 49.47143555 C-28.34609543 50.6891716 -28.36919281 51.90690765 -28.39299011 53.1615448 C-28.40767838 54.47206314 -28.42236664 55.78258148 -28.4375 57.1328125 C-28.45875894 58.4923461 -28.48072644 59.8518688 -28.50337219 61.21138 C-28.54870026 64.0550145 -28.58751663 66.89863746 -28.62133789 69.74243164 C-28.66500613 73.39464734 -28.72173357 77.04651359 -28.78288555 80.69847393 C-28.82896228 83.50271811 -28.86979764 86.30701816 -28.90885353 89.11136818 C-28.93724905 91.11510411 -28.96881639 93.11879427 -29.00041199 95.1224823 C-29.01405289 96.33076187 -29.02769379 97.53904144 -29.04174805 98.78393555 C-29.05570114 99.85330856 -29.06965424 100.92268158 -29.08403015 102.02445984 C-29.26306417 104.38496677 -29.26306417 104.38496677 -27.98828125 105.43359375 C-25.19499525 105.53946466 -22.42630538 105.58037142 -19.63232422 105.57885742 C-18.75584732 105.58221603 -17.87937042 105.58557465 -16.97633362 105.58903503 C-14.06103113 105.59858031 -11.14578592 105.60049033 -8.23046875 105.6015625 C-6.20842464 105.60477404 -4.18638077 105.60813804 -2.16433716 105.61164856 C2.08445779 105.61764978 6.33323236 105.61948759 10.58203125 105.61889648 C16.01935207 105.61879513 21.45654151 105.63241475 26.89383125 105.64966869 C31.07521154 105.66080716 35.25656034 105.66281508 39.43795395 105.66228676 C41.44175543 105.66346534 43.44555776 105.66788029 45.44934464 105.67561913 C48.25945348 105.68545038 51.06928085 105.6825279 53.87939453 105.67651367 C54.70357376 105.68213318 55.52775299 105.68775269 56.37690735 105.69354248 C63.64901563 105.65412636 69.58214093 104.71234996 75.01171875 99.43359375 C79.56266521 93.25730927 79.17872532 86.26418192 79.21484375 78.90625 C79.22054382 77.99910751 79.2262439 77.09196503 79.2321167 76.15733337 C79.24153026 74.24528152 79.24808612 72.3332137 79.25195312 70.42114258 C79.2616757 67.50898864 79.29274044 64.59753602 79.32421875 61.68554688 C79.33074827 59.82161874 79.33599894 57.9576856 79.33984375 56.09375 C79.35836395 54.79812889 79.35836395 54.79812889 79.3772583 53.47633362 C79.35250343 46.70442308 78.16610549 41.99556718 73.69921875 36.68359375 C68.44982887 32.28875571 63.94130769 30.98734732 57.18969727 31.04541016 C56.42953308 31.0401532 55.6693689 31.03489624 54.88616943 31.02947998 C52.38744207 31.01633733 49.88935821 31.02499829 47.390625 31.03515625 C45.64476907 31.03313365 43.89891396 31.03022066 42.15306091 31.02645874 C38.4990126 31.02204298 34.84518474 31.02844149 31.19116211 31.04248047 C26.51950527 31.05955925 21.84836605 31.04973481 17.17672825 31.03176308 C13.57264851 31.02089413 9.96869036 31.02438604 6.36460686 31.03214645 C4.6427091 31.03414053 2.92080013 31.03171717 1.19891548 31.02470779 C-1.21330641 31.01704329 -3.62470431 31.02876709 -6.03686523 31.04541016 C-7.09303795 31.03630112 -7.09303795 31.03630112 -8.17054749 31.02700806 C-15.77403857 31.12363482 -21.01456643 33.6072421 -25.98828125 39.43359375 Z M110.01171875 87.43359375 C109.83322388 88.73248535 109.83322388 88.73248535 109.65112305 90.05761719 C107.4543945 105.28855293 102.15985043 116.89588669 90.17578125 126.8671875 C80.90936122 133.57446987 71.38119345 135.4265045 60.19921875 136.1875 C58.03691964 136.20051843 58.03691964 136.20051843 57.01171875 137.43359375 C56.34542341 143.40462507 57.04982053 148.12260383 60.01171875 153.43359375 C63.78028674 158.0396213 68.18781158 160.95047365 74.13242912 161.70152855 C76.54144003 161.80084213 78.93263641 161.80496294 81.34350586 161.77416992 C82.70566223 161.77482704 82.70566223 161.77482704 84.09533691 161.77549744 C87.07680263 161.77341865 90.05769583 161.75013059 93.0390625 161.7265625 C95.1141377 161.72096331 97.18921689 161.71669474 99.26429749 161.71369934 C104.71085671 161.70227604 110.15717377 161.67283042 115.6036377 161.6395874 C121.16736577 161.60883231 126.73113319 161.59518239 132.29492188 161.58007812 C143.20062689 161.54795838 154.10615264 161.49679241 165.01171875 161.43359375 C165.08155447 154.15721815 165.134699 146.88091608 165.16715527 139.60427189 C165.18274101 136.22458531 165.20384731 132.84512981 165.23803711 129.46557617 C165.27459825 125.57073972 165.29148642 121.6762273 165.3046875 117.78125 C165.32017136 116.58089615 165.33565521 115.3805423 165.35160828 114.14381409 C165.35312504 106.50956269 165.04687932 99.22287019 160.109375 93.05859375 C159.43777344 92.52234375 158.76617187 91.98609375 158.07421875 91.43359375 C157.40519531 90.87671875 156.73617187 90.31984375 156.046875 89.74609375 C152.78298742 87.64116817 149.71472749 87.30795132 145.88574219 87.32006836 C144.68495026 87.32018166 144.68495026 87.32018166 143.4598999 87.32029724 C142.60559387 87.32545853 141.75128784 87.33061981 140.87109375 87.3359375 C139.54782074 87.33805992 139.54782074 87.33805992 138.19781494 87.34022522 C135.3857481 87.34581374 132.57376145 87.35836414 129.76171875 87.37109375 C127.85286573 87.37611023 125.94401147 87.38067288 124.03515625 87.38476562 C119.36064628 87.39577941 114.6861961 87.41303617 110.01171875 87.43359375 Z " fill="#CD2CE3" transform="translate(181.98828125,103.56640625)"/>
<path d="M0 0 C1.94996827 -0.00456939 3.89993493 -0.0098772 5.84989929 -0.0158844 C9.9256344 -0.02478804 14.00117329 -0.02242462 18.0769043 -0.01245117 C23.26807847 -0.0009784 28.45857067 -0.02116133 33.64965534 -0.05036831 C37.67431352 -0.06882669 41.69881126 -0.06841852 45.72350121 -0.06273079 C47.63582502 -0.06257868 49.54816048 -0.06853046 51.4604435 -0.08102226 C68.54837432 -0.1769217 83.24348839 1.97746472 96.26171875 14.18359375 C105.25265447 23.70127116 109.56651757 33.97453799 109.19921875 46.93359375 C109.18568359 47.85140625 109.17214844 48.76921875 109.15820312 49.71484375 C109.12319972 51.95506178 109.07410744 54.19399969 109.01171875 56.43359375 C108.42156982 56.4586499 107.8314209 56.48370605 107.22338867 56.50952148 C104.54845061 56.62559427 101.87385495 56.74826947 99.19921875 56.87109375 C98.27044922 56.91041016 97.34167969 56.94972656 96.38476562 56.99023438 C95.49208984 57.03212891 94.59941406 57.07402344 93.6796875 57.1171875 C92.44641724 57.17217407 92.44641724 57.17217407 91.18823242 57.22827148 C88.83266697 57.36787147 88.83266697 57.36787147 86.01171875 58.43359375 C86.01171875 59.09359375 86.01171875 59.75359375 86.01171875 60.43359375 C85.02171875 60.76359375 84.03171875 61.09359375 83.01171875 61.43359375 C82.68171875 62.42359375 82.35171875 63.41359375 82.01171875 64.43359375 C81.35171875 64.43359375 80.69171875 64.43359375 80.01171875 64.43359375 C79.68171875 65.09359375 79.35171875 65.75359375 79.01171875 66.43359375 C78.98984497 65.57979126 78.98984497 65.57979126 78.9675293 64.70874023 C78.8924271 62.09555547 78.79597686 59.48356276 78.69921875 56.87109375 C78.67666016 55.97583984 78.65410156 55.08058594 78.63085938 54.15820312 C78.34735397 47.12211449 77.295829 42.13846115 72.63671875 36.62109375 C67.80220413 32.59233157 63.43832816 32.1375202 57.30322266 32.15893555 C56.5432045 32.15382462 55.78318634 32.14871368 55.00013733 32.14344788 C52.49610443 32.12958631 49.99234788 32.13050619 47.48828125 32.1328125 C45.74099628 32.12892337 43.99371225 32.12458825 42.24642944 32.11982727 C38.58645563 32.11237222 34.92657828 32.11265092 31.26660156 32.11791992 C26.5870939 32.12371026 21.90798259 32.10679071 17.22854042 32.08357525 C13.62018543 32.06880911 10.01192523 32.06797018 6.40354538 32.07108498 C4.67884919 32.0705731 2.95414751 32.06536057 1.22948074 32.05527306 C-1.1876031 32.04287135 -3.60392354 32.04972244 -6.02099609 32.0612793 C-7.07952538 32.04981369 -7.07952538 32.04981369 -8.15943909 32.03811646 C-13.21621426 32.0912854 -16.52201952 33.27823733 -20.98828125 35.43359375 C-21.97828125 35.76359375 -22.96828125 36.09359375 -23.98828125 36.43359375 C-25.15781541 38.85742452 -25.15781541 38.85742452 -25.98828125 41.43359375 C-26.48328125 42.42359375 -26.48328125 42.42359375 -26.98828125 43.43359375 C-27.10833672 45.37330753 -27.16561469 47.31702991 -27.19360352 49.26025391 C-27.2137854 50.498479 -27.23396729 51.7367041 -27.25476074 53.01245117 C-27.27123657 54.31931885 -27.2877124 55.62618652 -27.3046875 56.97265625 C-27.32333862 58.16979248 -27.34198975 59.36692871 -27.36120605 60.6003418 C-27.42967414 65.08634835 -27.48971386 69.57248034 -27.55078125 74.05859375 C-27.69515625 84.08234375 -27.83953125 94.10609375 -27.98828125 104.43359375 C3.36171875 104.43359375 34.71171875 104.43359375 67.01171875 104.43359375 C63.3324243 106.88645671 61.53793968 106.66588253 57.15625 106.62890625 C56.49461349 106.62607635 55.83297699 106.62324646 55.15129089 106.62033081 C53.04208138 106.60915293 50.9332995 106.58405356 48.82421875 106.55859375 C47.39258427 106.54856082 45.96094311 106.53943551 44.52929688 106.53125 C41.02329898 106.5092217 37.51755062 106.4747086 34.01171875 106.43359375 C34.01171875 107.09359375 34.01171875 107.75359375 34.01171875 108.43359375 C33.35171875 108.43359375 32.69171875 108.43359375 32.01171875 108.43359375 C32.01171875 109.09359375 32.01171875 109.75359375 32.01171875 110.43359375 C31.02171875 111.09359375 30.03171875 111.75359375 29.01171875 112.43359375 C27.14824432 115.36470822 26.72995225 117.7595227 26.59765625 121.19921875 C26.55898437 122.08867187 26.5203125 122.978125 26.48046875 123.89453125 C26.44953125 124.81492187 26.41859375 125.7353125 26.38671875 126.68359375 C26.34804687 127.61945313 26.309375 128.5553125 26.26953125 129.51953125 C26.17547031 131.82402429 26.08982476 134.12851388 26.01171875 136.43359375 C25.39499298 136.43945999 24.77826721 136.44532623 24.14285278 136.45137024 C17.68543749 136.51563329 11.22850549 136.60013556 4.77148438 136.69604492 C2.36627603 136.72916339 -0.03900759 136.75723542 -2.44433594 136.7800293 C-5.91503784 136.81381616 -9.38505798 136.8661447 -12.85546875 136.921875 C-14.45139359 136.93145988 -14.45139359 136.93145988 -16.07955933 136.9412384 C-26.68197177 137.14692811 -35.80271982 139.43131926 -43.98828125 146.43359375 C-46.63309173 149.34367714 -49.16061248 152.27476924 -51.62890625 155.3359375 C-53.98828125 157.43359375 -53.98828125 157.43359375 -56.72265625 157.375 C-58.98828125 156.43359375 -58.98828125 156.43359375 -59.98828125 154.43359375 C-60.08877535 152.95521065 -60.12767846 151.47242071 -60.13545227 149.99064636 C-60.14260757 149.0558847 -60.14976288 148.12112305 -60.15713501 147.15803528 C-60.15982391 146.12901596 -60.16251282 145.09999664 -60.1652832 144.03979492 C-60.1718544 142.9582312 -60.1784256 141.87666748 -60.18519592 140.7623291 C-60.2049741 137.1670729 -60.21660601 133.5718587 -60.2265625 129.9765625 C-60.23267579 128.13363334 -60.23267579 128.13363334 -60.23891258 126.25347328 C-60.25764374 120.41379815 -60.27219906 114.57413951 -60.28052455 108.73444003 C-60.2892945 102.68392641 -60.30848385 96.63366534 -60.3449707 90.58325195 C-60.38353471 84.08402483 -60.40222565 77.58502502 -60.40672874 71.08568764 C-60.41158087 68.61513333 -60.42315529 66.14458221 -60.44176674 63.67409325 C-60.57890896 44.25114934 -59.53054614 28.7528479 -45.80078125 13.68359375 C-32.24188877 1.03673439 -17.49282961 -0.03600407 0 0 Z " fill="#1FA4EF" transform="translate(181.98828125,103.56640625)"/>
<path d="M0 0 C0.33 0 0.66 0 1 0 C1 5.28 1 10.56 1 16 C2.32241699 15.98952637 3.64483398 15.97905273 5.00732422 15.96826172 C9.90117702 15.93213453 14.79501798 15.90912611 19.68896484 15.89013672 C21.8094277 15.88006249 23.92987661 15.86640267 26.05029297 15.84912109 C29.09345943 15.82493511 32.13644266 15.81353131 35.1796875 15.8046875 C36.13181122 15.79436493 37.08393494 15.78404236 38.06491089 15.77340698 C38.94567291 15.77325592 39.82643494 15.77310486 40.73388672 15.77294922 C41.51110077 15.768508 42.28831482 15.76406677 43.08908081 15.75949097 C45 16 45 16 47 18 C49.06874034 18.6425235 49.06874034 18.6425235 51 19 C51 19.99 51 20.98 51 22 C49.68 22 48.36 22 47 22 C47.62650986 25.4109981 48.94216363 27.62256336 50.9375 30.4375 C55.60261843 37.02826928 56.27862414 41.88903962 56.125 49.8125 C56.11597656 50.69615234 56.10695313 51.57980469 56.09765625 52.49023438 C56.07419637 54.66027359 56.03832865 56.83017247 56 59 C55.34 59 54.68 59 54 59 C53.401875 58.0925 52.80375 57.185 52.1875 56.25 C49.76212502 52.64658575 47.36026734 49.73682943 43.10162354 48.40736389 C40.98561636 47.99721198 39.02757765 47.84238305 36.87402344 47.79467773 C35.67323151 47.7647599 35.67323151 47.7647599 34.44818115 47.73423767 C33.16672211 47.70916893 33.16672211 47.70916893 31.859375 47.68359375 C30.53610199 47.6524221 30.53610199 47.6524221 29.18609619 47.62062073 C26.37414169 47.55535133 23.56209555 47.49634553 20.75 47.4375 C18.84113644 47.39429327 16.93228207 47.35067829 15.0234375 47.30664062 C10.34905174 47.19969313 5.67457398 47.09836215 1 47 C1.00770416 47.61311539 1.01540833 48.22623077 1.02334595 48.85792542 C1.02933807 49.66479294 1.0353302 50.47166046 1.04150391 51.30297852 C1.04920807 52.1017189 1.05691223 52.90045929 1.06484985 53.72340393 C0.72898655 65.51410255 -7.13607275 77.0130467 -15.359375 84.88671875 C-22.34229631 90.47512175 -30.30650216 94.86532511 -39.328125 95.31640625 C-40.12734375 95.35830078 -40.9265625 95.40019531 -41.75 95.44335938 C-42.575 95.48267578 -43.4 95.52199219 -44.25 95.5625 C-45.09046875 95.60568359 -45.9309375 95.64886719 -46.796875 95.69335938 C-48.86440671 95.79908543 -50.93218281 95.90001295 -53 96 C-53 96.90355225 -53 97.80710449 -53 98.73803711 C-53 108.15869141 -53 117.5793457 -53 127 C-52.505 127.845625 -52.01 128.69125 -51.5 129.5625 C-49.65858824 133.78240195 -49.76445489 136.44612779 -50 141 C-48.68 140.67 -47.36 140.34 -46 140 C-45.505 142.475 -45.505 142.475 -45 145 C-48 147 -48 147 -50.4375 146.75 C-54.58519932 145.53603922 -57.61117876 143.66264526 -61 141 C-59.68 139.35 -58.36 137.7 -57 136 C-58.65 136 -60.3 136 -62 136 C-62 135.34 -62 134.68 -62 134 C-62.556875 134.515625 -63.11375 135.03125 -63.6875 135.5625 C-66 137 -66 137 -68.375 137.1875 C-74.65994815 134.34430917 -78.61226256 126.25153074 -81 120 C-82.60335416 114.39091374 -83.31813147 109.37371383 -83.3359375 103.5546875 C-83.3425943 102.7811795 -83.3492511 102.00767151 -83.35610962 101.21072388 C-83.36616086 99.58891148 -83.370929 97.96705835 -83.37060547 96.34521484 C-83.37500181 93.87398496 -83.41146113 91.40451145 -83.44921875 88.93359375 C-83.45508411 87.34896437 -83.45905538 85.76432661 -83.4609375 84.1796875 C-83.47530853 83.44829559 -83.48967957 82.71690369 -83.50448608 81.96334839 C-83.4593188 76.86565433 -82.27715058 73.89090066 -79 70 C-78.34 70 -77.68 70 -77 70 C-77 69.34 -77 68.68 -77 68 C-76.34 68 -75.68 68 -75 68 C-75 67.34 -75 66.68 -75 66 C-74.13834229 65.99589111 -73.27668457 65.99178223 -72.38891602 65.98754883 C-69.15101727 65.96036518 -65.91437351 65.91106723 -62.67700195 65.84741211 C-61.28356358 65.82440533 -59.88995559 65.80987753 -58.49633789 65.80444336 C-50.0910922 65.76523697 -42.78744474 65.50914099 -36 60 C-29.66291317 52.55392297 -30.71591518 42.98754965 -30.39453125 33.703125 C-30.35714844 32.7440625 -30.31976563 31.785 -30.28125 30.796875 C-30.25095703 29.92385742 -30.22066406 29.05083984 -30.18945312 28.15136719 C-30 26 -30 26 -29 24 C-28.34 24 -27.68 24 -27 24 C-26.67 22.68 -26.34 21.36 -26 20 C-25.01 20 -24.02 20 -23 20 C-23 19.34 -23 18.68 -23 18 C-19.79593538 15.86395692 -19.00399253 15.75791092 -15.33203125 15.8046875 C-14.43935547 15.81113281 -13.54667969 15.81757813 -12.62695312 15.82421875 C-11.23379883 15.84935547 -11.23379883 15.84935547 -9.8125 15.875 C-8.87212891 15.88402344 -7.93175781 15.89304688 -6.96289062 15.90234375 C-4.64181843 15.92590793 -2.32087711 15.96177879 0 16 C0 10.72 0 5.44 0 0 Z " fill="#F90DD1" transform="translate(291,144)"/>
<path d="M0 0 C1.02819603 -0.00284752 1.02819603 -0.00284752 2.0771637 -0.00575256 C4.32931189 -0.00943785 6.58113268 0.00121791 8.83325195 0.01245117 C10.41258201 0.01364517 11.99191279 0.01409567 13.57124329 0.01383972 C16.8789211 0.01540112 20.18649018 0.02365996 23.49414062 0.03710938 C27.70564316 0.05402874 31.91702562 0.05792534 36.12855816 0.05716419 C39.39135354 0.0574381 42.65412337 0.06295553 45.91691017 0.07016563 C47.46803405 0.07331919 49.0191608 0.07531184 50.5702877 0.07605934 C67.55426164 0.09319604 81.84340319 0.19536151 94.8840332 12.55541992 C103.86965978 22.3761419 108.44680154 32.50268331 108.0715332 45.74291992 C108.05123047 47.11963867 108.05123047 47.11963867 108.03051758 48.52416992 C107.99551417 50.76438795 107.94642189 53.00332586 107.8840332 55.24291992 C107.29388428 55.26797607 106.70373535 55.29303223 106.09570312 55.31884766 C103.42076507 55.43492044 100.7461694 55.55759564 98.0715332 55.68041992 C97.14276367 55.71973633 96.21399414 55.75905273 95.25708008 55.79956055 C94.3644043 55.84145508 93.47172852 55.88334961 92.55200195 55.92651367 C91.31873169 55.98150024 91.31873169 55.98150024 90.06054688 56.03759766 C87.70498143 56.17719764 87.70498143 56.17719764 84.8840332 57.24291992 C84.8840332 57.90291992 84.8840332 58.56291992 84.8840332 59.24291992 C83.3990332 59.73791992 83.3990332 59.73791992 81.8840332 60.24291992 C81.5540332 61.23291992 81.2240332 62.22291992 80.8840332 63.24291992 C80.2240332 63.24291992 79.5640332 63.24291992 78.8840332 63.24291992 C78.5540332 63.90291992 78.2240332 64.56291992 77.8840332 65.24291992 C77.86945068 64.67371826 77.85486816 64.1045166 77.83984375 63.51806641 C77.76474156 60.90488165 77.66829131 58.29288893 77.5715332 55.68041992 C77.54897461 54.78516602 77.52641602 53.88991211 77.50317383 52.9675293 C77.21966843 45.93144066 76.16814345 40.94778732 71.5090332 35.43041992 C66.65106901 31.38211642 62.22781076 30.94254516 56.06445312 30.92407227 C54.90755981 30.90900383 54.90755981 30.90900383 53.72729492 30.89363098 C51.18970452 30.86285386 48.65221937 30.84577921 46.11450195 30.82885742 C44.35043943 30.81014136 42.58638582 30.79056762 40.82234192 30.77017212 C36.18805194 30.71889119 31.55373295 30.67924386 26.91931152 30.64202881 C22.18677619 30.60196384 17.45436113 30.55088286 12.72192383 30.50073242 C3.44271149 30.40402096 -5.83656882 30.31960087 -15.1159668 30.24291992 C-14.7859668 29.58291992 -14.4559668 28.92291992 -14.1159668 28.24291992 C-14.3015918 27.35604492 -14.4872168 26.46916992 -14.6784668 25.55541992 C-15.20009402 21.60595663 -14.20183902 19.04347271 -13.1159668 15.24291992 C-13.4020791 11.92831194 -13.4020791 11.92831194 -14.1159668 9.24291992 C-13.4559668 8.91291992 -12.7959668 8.58291992 -12.1159668 8.24291992 C-11.46383388 6.21828737 -11.46383388 6.21828737 -11.1159668 4.24291992 C-11.8997168 4.75854492 -12.6834668 5.27416992 -13.4909668 5.80541992 C-14.3572168 6.27979492 -15.2234668 6.75416992 -16.1159668 7.24291992 C-16.7759668 6.91291992 -17.4359668 6.58291992 -18.1159668 6.24291992 C-12.41919255 1.21635441 -7.51883035 -0.00869279 0 0 Z " fill="#08A2EF" transform="translate(183.115966796875,104.757080078125)"/>
<path d="M0 0 C8.53623448 -0.04634803 17.07241635 -0.08188171 25.60874557 -0.10362434 C29.57254227 -0.1140599 33.53625286 -0.12821492 37.5 -0.15087891 C41.32550147 -0.17261545 45.15092012 -0.18457034 48.97647858 -0.18975449 C50.43571527 -0.19344879 51.89494744 -0.20066283 53.35414886 -0.21146011 C55.39863365 -0.225986 57.44277657 -0.22797751 59.48730469 -0.22705078 C60.65090515 -0.231492 61.81450562 -0.23593323 63.0133667 -0.24050903 C65.90678331 -0.0075066 67.55809595 0.48881516 70 2 C70 2.99 70 3.98 70 5 C68.68 5 67.36 5 66 5 C66.62650986 8.4109981 67.94216363 10.62256336 69.9375 13.4375 C74.60261843 20.02826928 75.27862414 24.88903962 75.125 32.8125 C75.11597656 33.69615234 75.10695313 34.57980469 75.09765625 35.49023438 C75.07419637 37.66027359 75.03832865 39.83017247 75 42 C74.34 42 73.68 42 73 42 C72.401875 41.0925 71.80375 40.185 71.1875 39.25 C68.76212502 35.64658575 66.36026734 32.73682943 62.10162354 31.40736389 C59.98561636 30.99721198 58.02757765 30.84238305 55.87402344 30.79467773 C54.67323151 30.7647599 54.67323151 30.7647599 53.44818115 30.73423767 C52.16672211 30.70916893 52.16672211 30.70916893 50.859375 30.68359375 C49.97719299 30.66281265 49.09501099 30.64203156 48.18609619 30.62062073 C45.37414169 30.55535133 42.56209555 30.49634553 39.75 30.4375 C37.84113644 30.39429327 35.93228207 30.35067829 34.0234375 30.30664062 C29.34905174 30.19969313 24.67457398 30.09836215 20 30 C20.01160156 30.60328125 20.02320313 31.2065625 20.03515625 31.828125 C20.04417969 32.62734375 20.05320312 33.4265625 20.0625 34.25 C20.07410156 35.03890625 20.08570313 35.8278125 20.09765625 36.640625 C20.00385306 38.90691002 19.63241063 40.8288895 19 43 C18.34 43 17.68 43 17 43 C16.67 41.68 16.34 40.36 16 39 C15.02417969 38.95101562 14.04835938 38.90203125 13.04296875 38.8515625 C11.77066406 38.77679688 10.49835938 38.70203125 9.1875 38.625 C7.92292969 38.55539063 6.65835937 38.48578125 5.35546875 38.4140625 C2 38 2 38 -1 36 C-3.50896686 35.54398739 -3.50896686 35.54398739 -6.1875 35.375 C-7.08855469 35.30023438 -7.98960937 35.22546875 -8.91796875 35.1484375 C-9.60503906 35.09945312 -10.29210937 35.05046875 -11 35 C-10.84273438 34.21753906 -10.68546875 33.43507812 -10.5234375 32.62890625 C-9.73955746 27.19439461 -9.68217649 21.74118996 -9.5703125 16.25585938 C-9.26291237 7.71910154 -9.26291237 7.71910154 -6 4 C-5.01 4 -4.02 4 -3 4 C-2.67 3.34 -2.34 2.68 -2 2 C-1.34 2 -0.68 2 0 2 C0 1.34 0 0.68 0 0 Z " fill="#F005BE" transform="translate(272,161)"/>
<path d="M0 0 C0.99 0 1.98 0 3 0 C2.67 1.65 2.34 3.3 2 5 C1.34 5 0.68 5 0 5 C0.37125 6.03125 0.7425 7.0625 1.125 8.125 C2.1083625 12.47989109 1.4478809 13.91186569 0 18 C0.29891234 21.76742779 0.29891234 21.76742779 1 25 C0.34 25 -0.32 25 -1 25 C-1 25.66 -1 26.32 -1 27 C-7.625 29.875 -7.625 29.875 -11 31 C-12.16953416 33.42383077 -12.16953416 33.42383077 -13 36 C-13.33 36.66 -13.66 37.32 -14 38 C-14.66 38 -15.32 38 -16 38 C-16.38308908 25.64182997 -16.66300443 15.76794682 -8.625 5.66015625 C-6.38126819 3.36788216 -3.9605787 2.17046135 -1 1 C-0.67 0.67 -0.34 0.34 0 0 Z " fill="#2471D1" transform="translate(169,109)"/>
<path d="M0 0 C3.54965477 1.43676503 5.07087942 3.11301898 7.125 6.3125 C7.62257813 7.07175781 8.12015625 7.83101562 8.6328125 8.61328125 C12.01551451 14.51851247 12.25476439 19.11965196 12.125 25.8125 C12.11597656 26.69615234 12.10695313 27.57980469 12.09765625 28.49023438 C12.07419637 30.66027359 12.03832865 32.83017247 12 35 C11.34 35 10.68 35 10 35 C9.401875 34.0925 8.80375 33.185 8.1875 32.25 C4.94404705 27.43115561 1.48116906 24.81561005 -4 23 C-7.2867057 22.63643931 -7.2867057 22.63643931 -10.83203125 22.5859375 C-12.12431641 22.54726562 -13.41660156 22.50859375 -14.74804688 22.46875 C-16.10285995 22.43729986 -17.45767775 22.40605239 -18.8125 22.375 C-20.18687272 22.3367825 -21.56122244 22.2977286 -22.93554688 22.2578125 C-26.29022989 22.16364596 -29.64490893 22.078018 -33 22 C-33 21.67 -33 21.34 -33 21 C-32.2886792 20.9906543 -31.5773584 20.98130859 -30.84448242 20.97167969 C-27.6247794 20.91803112 -24.40653817 20.83437365 -21.1875 20.75 C-19.50817383 20.72873047 -19.50817383 20.72873047 -17.79492188 20.70703125 C-16.72177734 20.67480469 -15.64863281 20.64257812 -14.54296875 20.609375 C-13.0583313 20.5779541 -13.0583313 20.5779541 -11.54370117 20.54589844 C-8.33090191 19.85640625 -7.74581436 18.6788933 -6 16 C-5.34 16 -4.68 16 -4 16 C-4 14.02 -4 12.04 -4 10 C-2.68 9.67 -1.36 9.34 0 9 C-0.495 7.515 -0.495 7.515 -1 6 C-0.34 6 0.32 6 1 6 C0.505 3.03 0.505 3.03 0 0 Z " fill="#9C1192" transform="translate(335,168)"/>
<path d="M0 0 C5.57894737 3.15789474 5.57894737 3.15789474 7 6 C7.5811138 13.08958838 7.5811138 13.08958838 5.125 16.9375 C1.8698054 20.09695358 -0.42413238 20.33421243 -4.9609375 20.29296875 C-8.13134567 19.83745033 -9.8192402 18.24684343 -12 16 C-13.53214888 12.93570224 -13.22938548 10.3834358 -13 7 C-11.73001681 4.14253783 -10.7161997 2.51862737 -8.1875 0.6875 C-5.22019177 -0.24508259 -3.10315844 -0.37237901 0 0 Z " fill="#44A0E8" transform="translate(182,162)"/>
<path d="M0 0 C5.70769231 3.12307692 5.70769231 3.12307692 7 7 C7.38887761 11.19987818 7.45908323 13.29607238 5.125 16.875 C2.19961143 19.80038857 1.42659437 19.96503325 -2.8125 20.3125 C-6.13227327 20.28232024 -6.99044521 20.0060988 -9.9375 18.125 C-12.60446101 15.37722199 -12.95824498 14.553254 -13.25 10.6875 C-12.98368917 6.75941531 -12.43481646 5.04352057 -10 2 C-6.78144775 -0.33067577 -3.89509474 -0.46741137 0 0 Z " fill="#7981D0" transform="translate(238,162)"/>
<path d="M0 0 C5.70769231 3.12307692 5.70769231 3.12307692 7 7 C7.38887761 11.19987818 7.45908323 13.29607238 5.125 16.875 C2.19961143 19.80038857 1.42659437 19.96503325 -2.8125 20.3125 C-6.13227327 20.28232024 -6.99044521 20.0060988 -9.9375 18.125 C-12.60446101 15.37722199 -12.95824498 14.553254 -13.25 10.6875 C-12.98368917 6.75941531 -12.43481646 5.04352057 -10 2 C-6.78144775 -0.33067577 -3.89509474 -0.46741137 0 0 Z " fill="#4CB8EB" transform="translate(210,162)"/>
<path d="M0 0 C0.66 0 1.32 0 2 0 C2.97226686 1.61361157 3.87857608 3.26727083 4.75 4.9375 C7.0550926 9.18230765 7.0550926 9.18230765 11.375 11.125 C12.674375 11.063125 12.674375 11.063125 14 11 C14 11.66 14 12.32 14 13 C15.32 13.33 16.64 13.66 18 14 C17.34 14 16.68 14 16 14 C16.185625 14.70125 16.37125 15.4025 16.5625 16.125 C17.05156976 19.33888698 16.66231558 21.83560336 16 25 C15.34 25 14.68 25 14 25 C13.31506627 27.85778033 13.31506627 27.85778033 13 31 C13.66 31.99 14.32 32.98 15 34 C15.66 34 16.32 34 17 34 C16.67 34.99 16.34 35.98 16 37 C8.4481467 33.92331903 5.68230057 27.9044424 2.234375 20.9375 C0.12903604 15.92732626 -0.11715764 11.59860618 -0.0625 6.1875 C-0.05347656 5.02605469 -0.04445312 3.86460937 -0.03515625 2.66796875 C-0.02355469 1.78753906 -0.01195312 0.90710938 0 0 Z " fill="#9B12A2" transform="translate(239,254)"/>
<path d="M0 0 C0.33 0 0.66 0 1 0 C1.04667978 14.43804531 1.0818362 28.87607896 1.10362434 43.31418419 C1.11394563 50.01774998 1.12802217 56.72126895 1.15087891 63.42480469 C1.17254588 69.88922246 1.18455562 76.35359149 1.18975449 82.81804276 C1.19346132 85.28930046 1.20069939 87.76055539 1.21146011 90.23179245 C1.22589332 93.68241984 1.22798137 97.13284357 1.22705078 100.58349609 C1.23424133 101.61423752 1.24143188 102.64497894 1.24884033 103.70695496 C1.246091 104.64367538 1.24334167 105.58039581 1.24050903 106.54550171 C1.24235262 107.36221029 1.24419621 108.17891888 1.24609566 109.02037621 C1 111 1 111 -1 113 C-4.68757741 112.96880222 -5.86645016 112.13565963 -8.47265625 109.48828125 C-9.34141187 108.4341755 -10.20443531 107.37532653 -11.0625 106.3125 C-17.25460717 99.09122486 -24.48218787 94.57476528 -34 93 C-34 92.67 -34 92.34 -34 92 C-26.375 90.75 -26.375 90.75 -23 93 C-20.67612053 93.39387788 -18.34206251 93.73486085 -16 94 C-15.67 93.34 -15.34 92.68 -15 92 C-13.02 92.66 -11.04 93.32 -9 94 C-8.855625 94.9075 -8.71125 95.815 -8.5625 96.75 C-8.376875 97.8225 -8.19125 98.895 -8 100 C-7.896875 100.7425 -7.79375 101.485 -7.6875 102.25 C-7.1210153 104.2117005 -7.1210153 104.2117005 -4.9375 105.25 C-3.9784375 105.62125 -3.9784375 105.62125 -3 106 C-3 105.34 -3 104.68 -3 104 C-3.66 104 -4.32 104 -5 104 C-4.67 103.34 -4.34 102.68 -4 102 C-3.34 102 -2.68 102 -2 102 C-1.67 103.98 -1.34 105.96 -1 108 C-0.67 72.36 -0.34 36.72 0 0 Z " fill="#E499F9" transform="translate(377,204)"/>
<path d="M0 0 C1.79244141 0.01740234 1.79244141 0.01740234 3.62109375 0.03515625 C5.41740234 0.04869141 5.41740234 0.04869141 7.25 0.0625 C8.17683594 0.07410156 9.10367188 0.08570313 10.05859375 0.09765625 C10.05859375 0.42765625 10.05859375 0.75765625 10.05859375 1.09765625 C6.42859375 1.42765625 2.79859375 1.75765625 -0.94140625 2.09765625 C-1.02294795 6.22306206 -1.08217357 10.34682779 -1.12890625 14.47265625 C-1.15404297 15.62894531 -1.17917969 16.78523438 -1.20507812 17.9765625 C-1.3017381 29.3824399 0.99608854 38.93592714 8.05859375 48.09765625 C10.29547516 50.01562485 12.56814117 51.5037666 15.05859375 53.09765625 C15.05859375 53.75765625 15.05859375 54.41765625 15.05859375 55.09765625 C4.69395888 56.95373448 -2.54571202 55.16856639 -11.40234375 49.53125 C-14.6033858 47.22580635 -16.73211316 45.41159589 -18.94140625 42.09765625 C-14.19140625 39.09765625 -14.19140625 39.09765625 -11.94140625 39.09765625 C-11.94140625 39.75765625 -11.94140625 40.41765625 -11.94140625 41.09765625 C-10.29140625 41.09765625 -8.64140625 41.09765625 -6.94140625 41.09765625 C-8.81640625 44.97265625 -8.81640625 44.97265625 -9.94140625 46.09765625 C-9.36390625 46.36578125 -8.78640625 46.63390625 -8.19140625 46.91015625 C-5.94140625 48.09765625 -5.94140625 48.09765625 -4.12890625 49.78515625 C-0.90201603 51.72129038 1.49237207 50.8520493 5.05859375 50.09765625 C4.56359375 47.62265625 4.56359375 47.62265625 4.05859375 45.09765625 C2.07859375 45.59265625 2.07859375 45.59265625 0.05859375 46.09765625 C-0.14056641 45.06705078 -0.14056641 45.06705078 -0.34375 44.015625 C-0.52035156 43.11457031 -0.69695312 42.21351563 -0.87890625 41.28515625 C-1.13994141 39.94517578 -1.13994141 39.94517578 -1.40625 38.578125 C-1.91881778 35.98368454 -1.91881778 35.98368454 -2.94140625 33.09765625 C-3.60140625 32.76765625 -4.26140625 32.43765625 -4.94140625 32.09765625 C-4.77640625 31.19789063 -4.61140625 30.298125 -4.44140625 29.37109375 C-3.65090643 23.84594537 -3.87504912 18.29001929 -3.94140625 12.72265625 C-3.96677884 10.54822531 -3.98785813 8.3737385 -4.00390625 6.19921875 C-4.01550781 5.24354004 -4.02710938 4.28786133 -4.0390625 3.30322266 C-3.88819402 -0.10414187 -3.46555337 0.11505821 0 0 Z " fill="#E03ECE" transform="translate(240.94140625,238.90234375)"/>
<path d="M0 0 C-0.9590625 0.4640625 -0.9590625 0.4640625 -1.9375 0.9375 C-3.93610821 1.8345163 -3.93610821 1.8345163 -5 3 C-7.33297433 3.04092937 -9.66705225 3.04241723 -12 3 C-11.319375 4.4540625 -11.319375 4.4540625 -10.625 5.9375 C-9.02642231 9.60747414 -8.22686018 13.24907139 -7.52734375 17.1796875 C-7.35332031 17.78039062 -7.17929688 18.38109375 -7 19 C-6.34 19.33 -5.68 19.66 -5 20 C-5.33 22.31 -5.66 24.62 -6 27 C-4.68 27.66 -3.36 28.32 -2 29 C-2 29.66 -2 30.32 -2 31 C-6.62 31 -11.24 31 -16 31 C-16 21.76 -16 12.52 -16 3 C-26.89 3.495 -26.89 3.495 -38 4 C-38 3.34 -38 2.68 -38 2 C-37.10692139 1.97494385 -36.21384277 1.9498877 -35.29370117 1.92407227 C-31.97814546 1.82889814 -28.66276271 1.72966717 -25.34741211 1.62768555 C-23.91288997 1.58439207 -22.47831816 1.54271301 -21.04370117 1.50268555 C-18.9808048 1.44484733 -16.91815717 1.38119247 -14.85546875 1.31640625 C-13.61434326 1.27974854 -12.37321777 1.24309082 -11.09448242 1.20532227 C-7.21477647 0.94789957 -3.94732631 -0.10668449 0 0 Z " fill="#DD0BB5" transform="translate(254,208)"/>
<path d="M0 0 C9.57 0 19.14 0 29 0 C30 10 30 10 29 14 C28.34 14 27.68 14 27 14 C26.67 12.68 26.34 11.36 26 10 C25.02417969 9.95101562 24.04835938 9.90203125 23.04296875 9.8515625 C21.77066406 9.77679688 20.49835938 9.70203125 19.1875 9.625 C17.92292969 9.55539063 16.65835937 9.48578125 15.35546875 9.4140625 C12 9 12 9 9 7 C6.49103314 6.54398739 6.49103314 6.54398739 3.8125 6.375 C2.91144531 6.30023438 2.01039063 6.22546875 1.08203125 6.1484375 C0.39496094 6.09945312 -0.29210937 6.05046875 -1 6 C-0.67 4.02 -0.34 2.04 0 0 Z " fill="#CA05A4" transform="translate(262,190)"/>
<path d="M0 0 C0.66 0 1.32 0 2 0 C2 20.13 2 40.26 2 61 C33.35 61 64.7 61 97 61 C93.02636418 63.64909055 89.55433523 63.30748561 84.9387207 63.31884766 C84.01169342 63.32889328 83.08466614 63.3389389 82.12954712 63.34928894 C79.06163154 63.38021011 75.99380358 63.39718093 72.92578125 63.4140625 C70.80013775 63.43276696 68.67450173 63.45233982 66.5488739 63.4727478 C60.9511658 63.52415129 55.35343361 63.56373304 49.75561523 63.60089111 C43.04080792 63.64790857 36.32612092 63.70954154 29.61141205 63.76873779 C19.40765638 63.85705014 9.20392493 63.92674303 -1 64 C-0.67 42.88 -0.34 21.76 0 0 Z " fill="#9DBCE4" transform="translate(152,147)"/>
<path d="M0 0 C0.66 0 1.32 0 2 0 C2.85746689 7.83958443 3.13546965 15.56646563 3.09765625 23.44921875 C3.09664917 24.46036743 3.09564209 25.47151611 3.09460449 26.51330566 C3.08942988 30.23804889 3.07546934 33.96277576 3.0625 37.6875 C3.041875 46.040625 3.02125 54.39375 3 63 C-28.02 63 -59.04 63 -91 63 C-90.67 62.34 -90.34 61.68 -90 61 C-59.97 61.33 -29.94 61.66 1 62 C0.505 57.545 0.505 57.545 0 53 C-0.07621693 51.03879462 -0.11825474 49.07571722 -0.11352539 47.11303711 C-0.11341209 45.522407 -0.11341209 45.522407 -0.11329651 43.89964294 C-0.10813522 42.78678421 -0.10297394 41.67392548 -0.09765625 40.52734375 C-0.0962413 39.3636879 -0.09482635 38.20003204 -0.09336853 37.00111389 C-0.08780628 33.31321557 -0.07526083 29.62537973 -0.0625 25.9375 C-0.05748012 23.42513109 -0.05291807 20.91276122 -0.04882812 18.40039062 C-0.03784923 12.26690605 -0.02114903 6.13345749 0 0 Z " fill="#D680DF" transform="translate(346,203)"/>
<path d="M0 0 C3 3 3 3 3.34057617 4.90112305 C3.32486572 5.59761963 3.30915527 6.29411621 3.29296875 7.01171875 C3.28330078 7.76904297 3.27363281 8.52636719 3.26367188 9.30664062 C3.23853516 10.09232422 3.21339844 10.87800781 3.1875 11.6875 C3.16719727 12.88342773 3.16719727 12.88342773 3.14648438 14.10351562 C3.11117089 16.06929967 3.05736447 18.03473582 3 20 C2.40985107 20.02505615 1.81970215 20.0501123 1.21166992 20.07592773 C-1.46326814 20.19200052 -4.1378638 20.31467572 -6.8125 20.4375 C-7.74126953 20.47681641 -8.67003906 20.51613281 -9.62695312 20.55664062 C-10.51962891 20.59853516 -11.41230469 20.64042969 -12.33203125 20.68359375 C-13.15421143 20.72025146 -13.9763916 20.75690918 -14.82348633 20.79467773 C-17.17905178 20.93427772 -17.17905178 20.93427772 -20 22 C-20 22.66 -20 23.32 -20 24 C-20.99 24.33 -21.98 24.66 -23 25 C-23.33 25.99 -23.66 26.98 -24 28 C-24.66 28 -25.32 28 -26 28 C-26.33 28.66 -26.66 29.32 -27 30 C-27 23.4 -27 16.8 -27 10 C-24.69 11.65 -22.38 13.3 -20 15 C-17.20356756 15.42303506 -17.20356756 15.42303506 -15 15 C-15.33 15.99 -15.66 16.98 -16 18 C-10.21101581 18.20674944 -5.57067277 17.59162079 0 16 C0 10.72 0 5.44 0 0 Z " fill="#6966C3" transform="translate(288,140)"/>
<path d="M0 0 C2.64 0 5.28 0 8 0 C8 0.66 8 1.32 8 2 C7.34 2 6.68 2 6 2 C6 2.66 6 3.32 6 4 C5.01 4.66 4.02 5.32 3 6 C-0.37896145 12.0919472 -0.37896145 12.0919472 0 29 C-15.84 29 -31.68 29 -48 29 C-44.3042402 26.53616014 -42.36916956 26.92466949 -38 27 C-36.32442621 26.71479595 -34.65182755 26.40044304 -33 26 C-33 26.66 -33 27.32 -33 28 C-31.2365625 27.7834375 -31.2365625 27.7834375 -29.4375 27.5625 C-26.36599762 27.18768909 -23.40751418 26.99310334 -20.30859375 26.95703125 C-11.78427032 26.95930948 -11.78427032 26.95930948 -4.5625 23 C-1.64727071 19.41316092 -1.55442317 16.55217598 -1.95703125 12.0703125 C-2.01829239 9.11863937 -0.55447393 7.43308963 1 5 C0.78670551 2.25760857 0.78670551 2.25760857 0 0 Z " fill="#4465CA" transform="translate(208,210)"/>
<path d="M0 0 C1.24546405 2.49092811 0.7767578 3.41080733 0 6 C0.50982422 5.83628906 1.01964844 5.67257812 1.54492188 5.50390625 C4.82838862 4.82997274 7.92888526 4.90778923 11.28125 4.9375 C12.76546175 4.94588726 14.24967402 4.95418424 15.73388672 4.96240234 C16.5118158 4.96858582 17.28974487 4.97476929 18.09124756 4.98114014 C31.86915858 5.08901736 45.58153339 4.95491361 59.34179688 4.1796875 C64.6818923 3.91998681 69.01241036 3.72343469 74 6 C74 6.33 74 6.66 74 7 C43.64 7 13.28 7 -18 7 C-18 6.67 -18 6.34 -18 6 C-15.36 6 -12.72 6 -10 6 C-10.33 5.01 -10.66 4.02 -11 3 C-9.01432292 2.51171875 -7.02864583 2.0234375 -5.04296875 1.53515625 C-3.34316798 1.08989295 -1.66698046 0.55566015 0 0 Z " fill="#B73BDE" transform="translate(266,288)"/>
<path d="M0 0 C8.53623448 -0.04634803 17.07241635 -0.08188171 25.60874557 -0.10362434 C29.57254227 -0.1140599 33.53625286 -0.12821492 37.5 -0.15087891 C41.32550147 -0.17261545 45.15092012 -0.18457034 48.97647858 -0.18975449 C50.43571527 -0.19344879 51.89494744 -0.20066283 53.35414886 -0.21146011 C55.39863365 -0.225986 57.44277657 -0.22797751 59.48730469 -0.22705078 C60.65090515 -0.231492 61.81450562 -0.23593323 63.0133667 -0.24050903 C65.90678331 -0.0075066 67.55809595 0.48881516 70 2 C70 2.99 70 3.98 70 5 C68.68 5 67.36 5 66 5 C65.67 5.66 65.34 6.32 65 7 C63.22265625 7.88671875 63.22265625 7.88671875 61.0625 8.6875 C60.35222656 8.95949219 59.64195312 9.23148438 58.91015625 9.51171875 C57 10 57 10 55 9 C55 7.68 55 6.36 55 5 C54.01 4.67 53.02 4.34 52 4 C52.33 3.34 52.66 2.68 53 2 C35.51 1.67 18.02 1.34 0 1 C0 0.67 0 0.34 0 0 Z " fill="#DA12B1" transform="translate(272,161)"/>
<path d="M0 0 C2.0234375 0.71484375 2.0234375 0.71484375 3.296875 2.5859375 C4.0234375 4.71484375 4.0234375 4.71484375 4.0234375 7.71484375 C-5.8146369 13.91178029 -5.8146369 13.91178029 -10.6640625 13.08984375 C-11.4271875 12.63609375 -12.1903125 12.18234375 -12.9765625 11.71484375 C-12.9765625 9.73484375 -12.9765625 7.75484375 -12.9765625 5.71484375 C-12.3165625 5.71484375 -11.6565625 5.71484375 -10.9765625 5.71484375 C-10.9765625 4.72484375 -10.9765625 3.73484375 -10.9765625 2.71484375 C-7.85763594 -1.08211033 -4.47114999 -0.42334809 0 0 Z " fill="#4483E5" transform="translate(238.9765625,164.28515625)"/>
<path d="M0 0 C6.76015742 5.73354326 6.76015742 5.73354326 7.87109375 10.03125 C7.92652344 10.9490625 7.98195313 11.866875 8.0390625 12.8125 C7.0390625 13.8125 7.0390625 13.8125 4.4765625 13.875 C3.6721875 13.854375 2.8678125 13.83375 2.0390625 13.8125 C0.39080139 10.84562999 -0.40364837 8.15623475 -0.9609375 4.8125 C-2.9409375 4.8125 -4.9209375 4.8125 -6.9609375 4.8125 C-7.1878125 3.884375 -7.4146875 2.95625 -7.6484375 2 C-9.19717253 -1.76121364 -10.31865371 -2.53980019 -13.9609375 -4.1875 C-16.15224284 -4.88329454 -16.15224284 -4.88329454 -17.9609375 -5.1875 C-17.9609375 -5.8475 -17.9609375 -6.5075 -17.9609375 -7.1875 C-21.2609375 -7.1875 -24.5609375 -7.1875 -27.9609375 -7.1875 C-27.9609375 -7.5175 -27.9609375 -7.8475 -27.9609375 -8.1875 C-17.23879528 -10.54114097 -8.55452804 -6.31996794 0 0 Z " fill="#F51DD0" transform="translate(359.9609375,170.1875)"/>
<path d="M0 0 C1.29671631 -0.00374634 1.29671631 -0.00374634 2.61962891 -0.00756836 C5.07328362 -0.01342713 7.52681286 -0.011999 9.98046875 -0.0078125 C11.06384773 -0.01078842 11.06384773 -0.01078842 12.16911316 -0.01382446 C17.05456194 0.00877355 21.19137658 0.58462553 25.8125 2.125 C26.3075 4.6 26.3075 4.6 26.8125 7.125 C27.4725 7.125 28.1325 7.125 28.8125 7.125 C28.4825 8.445 28.1525 9.765 27.8125 11.125 C27.11125 10.361875 26.41 9.59875 25.6875 8.8125 C20.47489026 3.93984307 15.88314487 2.67861149 8.87939453 2.69262695 C8.1079863 2.6824353 7.33657806 2.67224365 6.54179382 2.66174316 C4.00955852 2.63171541 1.47770214 2.62236308 -1.0546875 2.61328125 C-2.81732429 2.59642695 -4.57994912 2.57827569 -6.34255981 2.55888367 C-10.96863059 2.51145902 -15.59465284 2.48160099 -20.22088623 2.45544434 C-24.94683411 2.42560073 -29.67261494 2.37908346 -34.3984375 2.33398438 C-43.66137082 2.24803703 -52.92433859 2.18065368 -62.1875 2.125 C-62.1875 1.795 -62.1875 1.465 -62.1875 1.125 C-41.45910835 0.4984827 -20.73877473 0.02112283 0 0 Z " fill="#59BBE5" transform="translate(230.1875,132.875)"/>
<path d="M0 0 C0.33 0 0.66 0 1 0 C1 5.28 1 10.56 1 16 C15.52 16 30.04 16 45 16 C45 16.33 45 16.66 45 17 C23.88 17 2.76 17 -19 17 C-19 17.66 -19 18.32 -19 19 C-19.66 19 -20.32 19 -21 19 C-21.33 19.99 -21.66 20.98 -22 22 C-22.99 22 -23.98 22 -25 22 C-26.681248 24.95099294 -27.26183325 27.13446269 -27.34375 30.51953125 C-27.37339844 31.37740234 -27.40304687 32.23527344 -27.43359375 33.11914062 C-27.45550781 34.00794922 -27.47742188 34.89675781 -27.5 35.8125 C-27.65196372 41.89551832 -28.0422491 47.21358302 -30 53 C-30.33 53 -30.66 53 -31 53 C-30.86164197 48.54140138 -30.71305421 44.08320214 -30.5625 39.625 C-30.52318359 38.35398438 -30.48386719 37.08296875 -30.44335938 35.7734375 C-30.40146484 34.56171875 -30.35957031 33.35 -30.31640625 32.1015625 C-30.27974854 30.98088379 -30.24309082 29.86020508 -30.20532227 28.70556641 C-30 26 -30 26 -29 24 C-28.34 24 -27.68 24 -27 24 C-26.67 22.68 -26.34 21.36 -26 20 C-25.01 20 -24.02 20 -23 20 C-23 19.34 -23 18.68 -23 18 C-19.79593538 15.86395692 -19.00399253 15.75791092 -15.33203125 15.8046875 C-14.43935547 15.81113281 -13.54667969 15.81757813 -12.62695312 15.82421875 C-11.23379883 15.84935547 -11.23379883 15.84935547 -9.8125 15.875 C-8.87212891 15.88402344 -7.93175781 15.89304688 -6.96289062 15.90234375 C-4.64181843 15.92590793 -2.32087711 15.96177879 0 16 C0 10.72 0 5.44 0 0 Z " fill="#D85BD2" transform="translate(291,144)"/>
<path d="M0 0 C0.33 0 0.66 0 1 0 C1 1.65 1 3.3 1 5 C1.99 5.33 2.98 5.66 4 6 C7.42992523 11.9609735 8.56315075 18.22883663 9 25 C9.66 25 10.32 25 11 25 C11.66 25.99 12.32 26.98 13 28 C13.66 28 14.32 28 15 28 C14.67 28.99 14.34 29.98 14 31 C6.653655 28.00704463 3.46899605 22.00796232 0.1640625 15.15234375 C-1.48074581 10.69811452 -1.73592846 6.67640619 -1 2 C-0.67 1.34 -0.34 0.68 0 0 Z " fill="#870A93" transform="translate(241,260)"/>
<path d="M0 0 C0.99 0.33 1.98 0.66 3 1 C3.96070434 3.88211302 4.10581883 5.69850044 4.0625 8.6875 C4.05347656 9.49574219 4.04445312 10.30398437 4.03515625 11.13671875 C4.02355469 11.75160156 4.01195312 12.36648437 4 13 C4.66 13 5.32 13 6 13 C7.60725635 16.21451269 7.05748185 19.43612536 7 23 C8.98 23 10.96 23 13 23 C13 23.33 13 23.66 13 24 C8.71 24 4.42 24 0 24 C0 16.08 0 8.16 0 0 Z " fill="#CE03A9" transform="translate(239,215)"/>
<path d="M0 0 C0.66 0.33 1.32 0.66 2 1 C1.67 1.66 1.34 2.32 1 3 C0.34 3 -0.32 3 -1 3 C-1.05024886 7.70986457 -1.08611102 12.41956582 -1.10986328 17.12963867 C-1.11978751 18.72471848 -1.13333127 20.31978077 -1.15087891 21.91479492 C-1.26396312 32.47486484 -0.71617101 42.56657024 1 53 C1.66 53 2.32 53 3 53 C3 54.65 3 56.3 3 58 C-2.87600019 51.28457122 -4.1533514 42.54516865 -4.23828125 33.9453125 C-4.246353 33.16614471 -4.25442474 32.38697693 -4.26274109 31.584198 C-4.27654411 29.93847861 -4.28728311 28.29273105 -4.29516602 26.64697266 C-4.30669798 24.96915258 -4.32716917 23.29136953 -4.35668945 21.61376953 C-4.39945045 19.18236506 -4.41554438 16.7520467 -4.42578125 14.3203125 C-4.44328934 13.57637238 -4.46079742 12.83243225 -4.47883606 12.06594849 C-4.45657299 6.68288279 -3.2436061 4.07627746 0 0 Z " fill="#DA41CF" transform="translate(212,214)"/>
<path d="M0 0 C0.99 0.33 1.98 0.66 3 1 C3.49029622 8.23186925 3.49029622 8.23186925 1.125 11.9375 C-1.01260116 14.01223054 -1.98327003 14.94895934 -4.9453125 15.09765625 C-6.96354167 15.06510417 -8.98177083 15.03255208 -11 15 C-10.34 13.02 -9.68 11.04 -9 9 C-9.99 8.67 -10.98 8.34 -12 8 C-10.3767313 7.3291288 -8.75132422 6.66342971 -7.125 6 C-6.22007812 5.62875 -5.31515625 5.2575 -4.3828125 4.875 C-2 4 -2 4 0 4 C0 2.68 0 1.36 0 0 Z " fill="#5A64D5" transform="translate(186,167)"/>
<path d="M0 0 C1.48034764 0.47550561 2.95925021 0.95551216 4.4375 1.4375 C5.26121094 1.70433594 6.08492187 1.97117187 6.93359375 2.24609375 C9 3 9 3 10 4 C12.82960718 4.12523079 15.63599337 4.18609228 18.46704102 4.20532227 C19.35476196 4.21522186 20.24248291 4.22512146 21.15710449 4.23532104 C24.10601082 4.26703484 27.05493329 4.29173234 30.00390625 4.31640625 C32.0427239 4.33696726 34.08153721 4.35796349 36.12034607 4.37937927 C41.49779755 4.4346881 46.87528806 4.48405838 52.25280762 4.53222656 C57.73563121 4.58237742 63.21839784 4.63809689 68.70117188 4.69335938 C79.4673993 4.80104865 90.2336761 4.90246954 101 5 C101 5.33 101 5.66 101 6 C70.31 6 39.62 6 8 6 C8 5.34 8 4.68 8 4 C6.02 4 4.04 4 2 4 C1.34 2.68 0.68 1.36 0 0 Z " fill="#C036CC" transform="translate(245,261)"/>
<path d="M0 0 C0 0.66 0 1.32 0 2 C1.65 2 3.3 2 5 2 C3.125 5.875 3.125 5.875 2 7 C2.5775 7.268125 3.155 7.53625 3.75 7.8125 C6.05550043 9.02929189 8.02056192 10.30333879 10 12 C10 12.66 10 13.32 10 14 C14.29 14.33 18.58 14.66 23 15 C18.346944 17.326528 16.96351984 17.10708529 12 16 C8.4296875 14.58203125 8.4296875 14.58203125 4.875 12.8125 C3.10769531 11.95591797 3.10769531 11.95591797 1.3046875 11.08203125 C-2.43588729 8.7253807 -4.37107461 6.50688727 -7 3 C-2.25 0 -2.25 0 0 0 Z " fill="#E92AE2" transform="translate(229,278)"/>
<path d="M0 0 C7.66925106 2.15697686 13.26091642 8.92804917 18 15 C15 16 15 16 12 15 C11.67 15.99 11.34 16.98 11 18 C11 17.34 11 16.68 11 16 C9.35 16.66 7.7 17.32 6 18 C5.875 11.25 5.875 11.25 7 9 C6.175 8.21625 5.35 7.4325 4.5 6.625 C2 4 2 4 2 2 C1.34 2 0.68 2 0 2 C0 1.34 0 0.68 0 0 Z " fill="#1E9CEE" transform="translate(266,110)"/>
<path d="M0 0 C1.9375 0.8125 1.9375 0.8125 4 2 C4.33 2.99 4.66 3.98 5 5 C5.66 5 6.32 5 7 5 C7 5.99 7 6.98 7 8 C7.66 8 8.32 8 9 8 C11.82919553 13.41237406 12.43056766 18.04657881 12.69140625 24.1328125 C13.00877516 27.08153128 13.77482427 29.31347009 15 32 C14.34 32 13.68 32 13 32 C13.33 32.99 13.66 33.98 14 35 C13.5625 37.6875 13.5625 37.6875 13 40 C12.34 40 11.68 40 11 40 C10.21377219 36.87411041 9.92311199 33.91397167 9.859375 30.70703125 C9.67290516 21.41856166 9.42541312 13.90154644 4 6 C3.5978125 5.36449219 3.195625 4.72898438 2.78125 4.07421875 C1.89125897 2.69155411 0.95241196 1.34043165 0 0 Z " fill="#F014CC" transform="translate(337,168)"/>
<path d="M0 0 C0 0.33 0 0.66 0 1 C-0.61746094 1.14695313 -1.23492187 1.29390625 -1.87109375 1.4453125 C-13.00941567 4.39518771 -19.5209368 10.07253437 -26.640625 18.90234375 C-27.41921875 19.59457031 -28.1978125 20.28679687 -29 21 C-31.796875 20.81640625 -31.796875 20.81640625 -34 20 C-31.53721199 17.53721199 -29.29323018 17.00228745 -26 16 C-26 15.01 -26 14.02 -26 13 C-25.34 13 -24.68 13 -24 13 C-24 11.68 -24 10.36 -24 9 C-22.35 8.67 -20.7 8.34 -19 8 C-19.33 6.68 -19.66 5.36 -20 4 C-19.34 3.67 -18.68 3.34 -18 3 C-17.01 3.33 -16.02 3.66 -15 4 C-14.67 3.01 -14.34 2.02 -14 1 C-9.32798795 -0.20568053 -4.78503708 -0.09382426 0 0 Z " fill="#78A8E5" transform="translate(157,240)"/>
<path d="M0 0 C0 0.66 0 1.32 0 2 C1.65 1.34 3.3 0.68 5 0 C5.3125 2.75 5.3125 2.75 5 6 C2.83746443 8.56801099 1.2778092 9.85355976 -2.11328125 10.2421875 C-4.07716839 10.24916401 -6.04059838 10.13284079 -8 10 C-7.61508669 5.50934475 -5.14531178 0 0 0 Z " fill="#5866D6" transform="translate(211,172)"/>
<path d="M0 0 C0.99 0.33 1.98 0.66 3 1 C2.34 1 1.68 1 1 1 C1.33 1.66 1.66 2.32 2 3 C2.99 3.33 3.98 3.66 5 4 C5 4.99 5 5.98 5 7 C6.175625 7.2165625 6.175625 7.2165625 7.375 7.4375 C10 8 10 8 12 9 C12 8.34 12 7.68 12 7 C11.34 7 10.68 7 10 7 C10.33 6.34 10.66 5.68 11 5 C11.66 5 12.32 5 13 5 C13.66 8.3 14.32 11.6 15 15 C10 16 10 16 8.33081055 14.92016602 C7.85426025 14.37030029 7.37770996 13.82043457 6.88671875 13.25390625 C6.0987793 12.36928711 6.0987793 12.36928711 5.29492188 11.46679688 C4.76447266 10.83837891 4.23402344 10.20996094 3.6875 9.5625 C3.13771484 8.93794922 2.58792969 8.31339844 2.02148438 7.66992188 C0.66623194 6.12611258 -0.66887262 4.5646585 -2 3 C-1.34 2.67 -0.68 2.34 0 2 C0 1.34 0 0.68 0 0 Z " fill="#B13EEB" transform="translate(362,301)"/>
<path d="M0 0 C0.33 0 0.66 0 1 0 C1 25.74 1 51.48 1 78 C0.67 78 0.34 78 0 78 C-0.12375 77.195625 -0.2475 76.39125 -0.375 75.5625 C-0.58125 74.716875 -0.7875 73.87125 -1 73 C-1.66 72.67 -2.32 72.34 -3 72 C-3 71.34 -3 70.68 -3 70 C-2.01 70 -1.02 70 0 70 C0 46.9 0 23.8 0 0 Z " fill="#B33CE3" transform="translate(375,234)"/>
<path d="M0 0 C0.33 0 0.66 0 1 0 C1.19820989 4.02037968 1.3816467 8.04130512 1.5625 12.0625 C1.61857422 13.19623047 1.67464844 14.32996094 1.73242188 15.49804688 C1.97983976 21.15566921 2.09078977 26.43293223 1 32 C2.98 31.01 4.96 30.02 7 29 C7 29.99 7 30.98 7 32 C1.25 35 1.25 35 -1 35 C-1.0246519 30.17619198 -1.04283693 25.35242033 -1.05493164 20.52856445 C-1.05997174 18.88630536 -1.06680378 17.24405077 -1.07543945 15.60180664 C-1.08751926 13.24624521 -1.09323139 10.89074291 -1.09765625 8.53515625 C-1.10281754 7.79660904 -1.10797882 7.05806183 -1.11329651 6.2971344 C-1.1134925 4.53101912 -1.06194719 2.76502854 -1 1 C-0.67 0.67 -0.34 0.34 0 0 Z " fill="#428FD3" transform="translate(124,224)"/>
<path d="M0 0 C1.10408203 0.01353516 1.10408203 0.01353516 2.23046875 0.02734375 C4.0287888 0.05069856 5.82693911 0.08656164 7.625 0.125 C7.625 0.785 7.625 1.445 7.625 2.125 C6.64917969 2.16238281 5.67335937 2.19976562 4.66796875 2.23828125 C2.75951172 2.33689453 2.75951172 2.33689453 0.8125 2.4375 C-0.45207031 2.49550781 -1.71664062 2.55351563 -3.01953125 2.61328125 C-6.30267296 2.8450952 -6.30267296 2.8450952 -8.23046875 4.5078125 C-9.49407108 6.24397346 -9.49407108 6.24397346 -10.875 8.6875 C-12.375 11.125 -12.375 11.125 -15.375 13.125 C-15.375 11.805 -15.375 10.485 -15.375 9.125 C-14.715 8.795 -14.055 8.465 -13.375 8.125 C-12.72286708 6.10036745 -12.72286708 6.10036745 -12.375 4.125 C-13.15875 4.640625 -13.9425 5.15625 -14.75 5.6875 C-15.61625 6.161875 -16.4825 6.63625 -17.375 7.125 C-18.035 6.795 -18.695 6.465 -19.375 6.125 C-13.26328056 0.73230638 -7.85283847 -0.18460561 0 0 Z " fill="#0A8FDA" transform="translate(184.375,104.875)"/>
<path d="M0 0 C1.32 0 2.64 0 4 0 C5.3440093 1.99284138 6.67541292 3.99419671 8 6 C9.79412176 7.4691644 9.79412176 7.4691644 11.75 8.75 C12.8225 9.4925 13.895 10.235 15 11 C15 11.66 15 12.32 15 13 C9.39 12.34 3.78 11.68 -2 11 C2 9 2 9 5 8 C4.67 6.35 4.34 4.7 4 3 C2.68 3.33 1.36 3.66 0 4 C0 2.68 0 1.36 0 0 Z " fill="#D626DC" transform="translate(241,281)"/>
<path d="M0 0 C-3.19426332 7.03051093 -8.99814594 12.3156261 -15 17 C-15.66 16.67 -16.32 16.34 -17 16 C-16.505 15.54625 -16.01 15.0925 -15.5 14.625 C-13.77390663 13.12364481 -13.77390663 13.12364481 -14 11 C-12.68 11 -11.36 11 -10 11 C-10.33 9.02 -10.66 7.04 -11 5 C-10.34 5 -9.68 5 -9 5 C-9.33 4.01 -9.66 3.02 -10 2 C-7 1 -7 1 -4 1 C-2 0 -2 0 0 0 Z " fill="#FB14D2" transform="translate(285,216)"/>
<path d="M0 0 C0 0.99 0 1.98 0 3 C-2.046875 4.640625 -2.046875 4.640625 -4.75 6.25 C-5.63171875 6.79140625 -6.5134375 7.3328125 -7.421875 7.890625 C-10 9 -10 9 -12.328125 8.671875 C-12.87984375 8.45015625 -13.4315625 8.2284375 -14 8 C-14 7.01 -14 6.02 -14 5 C-13.34 5 -12.68 5 -12 5 C-12 4.01 -12 3.02 -12 2 C-8.4443319 -2.14827945 -4.88209321 -0.89505042 0 0 Z " fill="#0DA8EF" transform="translate(240,165)"/>
<path d="M0 0 C0.33 1.32 0.66 2.64 1 4 C0.28972656 4.26554688 -0.42054688 4.53109375 -1.15234375 4.8046875 C-2.07144531 5.15789062 -2.99054688 5.51109375 -3.9375 5.875 C-4.85402344 6.22304687 -5.77054688 6.57109375 -6.71484375 6.9296875 C-9.14941056 7.7819086 -9.14941056 7.7819086 -10 10 C-10.99 10 -11.98 10 -13 10 C-13 8.35 -13 6.7 -13 5 C-12.01 4.67 -11.02 4.34 -10 4 C-9.67 3.01 -9.34 2.02 -9 1 C-6.04335481 -0.4783226 -3.25770263 -0.06032783 0 0 Z " fill="#13A4EE" transform="translate(211,164)"/>
<path d="M0 0 C6.27 0 12.54 0 19 0 C19 2.31 19 4.62 19 7 C18.34 6.34 17.68 5.68 17 5 C14.27530214 4.53340269 11.61820198 4.16400746 8.875 3.875 C7.74384766 3.74544922 7.74384766 3.74544922 6.58984375 3.61328125 C4.72742873 3.40110739 2.86381069 3.19954237 1 3 C0.67 2.01 0.34 1.02 0 0 Z " fill="#B50194" transform="translate(272,191)"/>
<path d="M0 0 C1.24546405 2.49092811 0.7767578 3.41080733 0 6 C0.61875 5.79375 1.2375 5.5875 1.875 5.375 C2.57625 5.25125 3.2775 5.1275 4 5 C4.66 5.66 5.32 6.32 6 7 C-1.92 7 -9.84 7 -18 7 C-18 6.67 -18 6.34 -18 6 C-15.36 6 -12.72 6 -10 6 C-10.33 5.01 -10.66 4.02 -11 3 C-9.01432292 2.51171875 -7.02864583 2.0234375 -5.04296875 1.53515625 C-3.34316798 1.08989295 -1.66698046 0.55566015 0 0 Z " fill="#B126C2" transform="translate(266,288)"/>
<path d="M0 0 C17.82 0 35.64 0 54 0 C54.495 0.99 54.495 0.99 55 2 C54.40531418 1.99333817 53.81062836 1.98667633 53.19792175 1.97981262 C47.01766355 1.9135272 40.83750604 1.86822775 34.65698242 1.83520508 C32.34932352 1.82010324 30.04169339 1.79962031 27.73413086 1.77368164 C24.42033801 1.73736025 21.10692408 1.72028764 17.79296875 1.70703125 C16.7585112 1.69154739 15.72405365 1.67606354 14.6582489 1.66011047 C13.6974794 1.65988388 12.7367099 1.65965729 11.74682617 1.65942383 C10.47774666 1.64943108 10.47774666 1.64943108 9.18302917 1.63923645 C6.53796284 2.07635545 5.66463188 2.95440318 4 5 C4 3.68 4 2.36 4 1 C2.68 0.67 1.36 0.34 0 0 Z " fill="#3583D1" transform="translate(154,210)"/>
<path d="M0 0 C5.70769231 3.12307692 5.70769231 3.12307692 7 7 C7.03954234 9.33299825 7.04401732 11.66708189 7 14 C6.67 13.01 6.34 12.02 6 11 C3.98491642 10.26676204 3.98491642 10.26676204 2 10 C2.99 10 3.98 10 5 10 C4.34 8.02 3.68 6.04 3 4 C1.58566794 3.7763663 0.16832382 3.57173524 -1.25 3.375 C-2.03890625 3.25898438 -2.8278125 3.14296875 -3.640625 3.0234375 C-6.32152459 2.99680605 -7.72694089 3.63407916 -10 5 C-10 5.99 -10 6.98 -10 8 C-10.66 8 -11.32 8 -12 8 C-12 9.98 -12 11.96 -12 14 C-12.33 14 -12.66 14 -13 14 C-13.29254918 9.02666392 -13.16504232 5.9563029 -10 2 C-6.78144775 -0.33067577 -3.89509474 -0.46741137 0 0 Z " fill="#7CC1EB" transform="translate(238,162)"/>
<path d="M0 0 C0.33 0.66 0.66 1.32 1 2 C2.65 2 4.3 2 6 2 C5.01 2.495 5.01 2.495 4 3 C4 3.66 4 4.32 4 5 C-2.625 7.875 -2.625 7.875 -6 9 C-6.71727778 10.64551962 -7.38325228 12.31422289 -8 14 C-8.66 14.66 -9.32 15.32 -10 16 C-10.34641555 11.15018224 -9.59367168 8.1306623 -7 4 C-4 3 -4 3 -1 4 C-0.67 2.68 -0.34 1.36 0 0 Z " fill="#3D8DD4" transform="translate(164,131)"/>
<path d="M0 0 C2.69082872 0.17635452 5.32851446 0.61835921 8 1 C7.01 1.495 7.01 1.495 6 2 C6.185625 2.70125 6.37125 3.4025 6.5625 4.125 C7.05156976 7.33888698 6.66231558 9.83560336 6 13 C4.68 13.33 3.36 13.66 2 14 C1.22596442 9.93631321 0.9015298 6.13574827 1 2 C0.34 1.67 -0.32 1.34 -1 1 C-0.67 0.67 -0.34 0.34 0 0 Z " fill="#A813AF" transform="translate(249,266)"/>
<path d="M0 0 C0.99 0.495 0.99 0.495 2 1 C2 1.66 2 2.32 2 3 C2.99 3 3.98 3 5 3 C5.66 5.31 6.32 7.62 7 10 C9.97 10.495 9.97 10.495 13 11 C13 11.33 13 11.66 13 12 C8.71 12 4.42 12 0 12 C0 8.04 0 4.08 0 0 Z " fill="#AB0497" transform="translate(239,227)"/>
<path d="M0 0 C2.97 0 5.94 0 9 0 C7.17853509 3.64292982 6.65297877 4.59663415 3.5625 6.75 C2.96566406 7.17796875 2.36882812 7.6059375 1.75390625 8.046875 C0 9 0 9 -3 9 C-2.41321669 5.47930015 -1.64350079 3.28700157 0 0 Z " fill="#10A2EF" transform="translate(174,165)"/>
<path d="M0 0 C1.60031344 3.20062687 0.03173691 5.72271806 -1 9 C-2.32 9.33 -3.64 9.66 -5 10 C-4.97679688 10.556875 -4.95359375 11.11375 -4.9296875 11.6875 C-4.79988976 17.17609015 -5.46671566 21.7293351 -7 27 C-7.33 27 -7.66 27 -8 27 C-8.85699469 17.16043132 -7.33209221 10.35729478 -2 2 C-1.34 1.34 -0.68 0.68 0 0 Z " fill="#4DCCF2" transform="translate(132,123)"/>
<path d="M0 0 C1.42944945 2.35438733 2.08661261 3.48032433 1.625 6.25 C1.41875 6.8275 1.2125 7.405 1 8 C0.34 8 -0.32 8 -1 8 C-1.33 6.68 -1.66 5.36 -2 4 C-3.49853516 3.92652344 -3.49853516 3.92652344 -5.02734375 3.8515625 C-6.96287109 3.73941406 -6.96287109 3.73941406 -8.9375 3.625 C-10.86916016 3.52058594 -10.86916016 3.52058594 -12.83984375 3.4140625 C-14.40412109 3.20910156 -14.40412109 3.20910156 -16 3 C-16.33 2.34 -16.66 1.68 -17 1 C-11.29014022 0.25983299 -5.75813575 -0.10469338 0 0 Z " fill="#E804B7" transform="translate(290,196)"/>
<path d="M0 0 C0.66 0 1.32 0 2 0 C2.9045222 6.56822271 3.06232196 12.95728759 2.6875 19.5625 C2.65277588 20.26503906 2.61805176 20.96757812 2.58227539 21.69140625 C2.24543173 26.75456827 2.24543173 26.75456827 0 29 C0 19.43 0 9.86 0 0 Z " fill="#D87FD2" transform="translate(346,203)"/>
<path d="M0 0 C3 3 3 3 3.29296875 6.79296875 C3.2730801 8.25809933 3.23737968 9.72308367 3.1875 11.1875 C3.17396484 11.93708984 3.16042969 12.68667969 3.14648438 13.45898438 C3.11118539 15.30629767 3.05737917 17.15324066 3 19 C-0.63 19 -4.26 19 -8 19 C-4 17 -4 17 0 15 C0 10.05 0 5.1 0 0 Z " fill="#3774CC" transform="translate(288,140)"/>
<path d="M0 0 C0.763125 0.309375 1.52625 0.61875 2.3125 0.9375 C5.40381162 2.15964645 7.65238648 3 11 3 C9.84826645 5.46800047 8.95216435 7.04783565 7 9 C6.01 9 5.02 9 4 9 C4 8.01 4 7.02 4 6 C3.01 6.33 2.02 6.66 1 7 C0 6 0 6 -0.0625 2.9375 C-0.041875 1.968125 -0.02125 0.99875 0 0 Z " fill="#306CCF" transform="translate(262,152)"/>
<path d="M0 0 C-1.84375 1.08203125 -1.84375 1.08203125 -4 2 C-6.5 0.6875 -6.5 0.6875 -9 -1 C-11.19130534 -1.69579454 -11.19130534 -1.69579454 -13 -2 C-13 -2.66 -13 -3.32 -13 -4 C-16.3 -4 -19.6 -4 -23 -4 C-23 -4.33 -23 -4.66 -23 -5 C-13.95084601 -6.98639966 -7.83362399 -4.27145292 0 0 Z " fill="#EC56D6" transform="translate(355,167)"/>
<path d="M0 0 C0.99 0.33 1.98 0.66 3 1 C3 1.33 3 1.66 3 2 C18.84 2.495 18.84 2.495 35 3 C35 3.33 35 3.66 35 4 C22.46 4 9.92 4 -3 4 C-2.01 3.01 -1.02 2.02 0 1 C0 0.67 0 0.34 0 0 Z " fill="#159FDA" transform="translate(173,130)"/>
<path d="M0 0 C3.71888239 0.50712033 6.73454239 1.11608215 10 3 C10 3.66 10 4.32 10 5 C14.29 5.33 18.58 5.66 23 6 C18.62505286 8.18747357 16.4978354 8.40408618 12 7 C7.91508281 5.15437409 3.9485094 3.12013559 0 1 C0 0.67 0 0.34 0 0 Z " fill="#D962DC" transform="translate(229,287)"/>
<path d="M0 0 C0.33 0 0.66 0 1 0 C1.103125 1.2375 1.20625 2.475 1.3125 3.75 C1.73801682 7.2792866 2.48112592 9.37160966 5 12 C4.01 12.495 4.01 12.495 3 13 C3.33 13.99 3.66 14.98 4 16 C3.5625 18.6875 3.5625 18.6875 3 21 C2.34 21 1.68 21 1 21 C-0.11165232 16.5621439 -0.11527763 12.23043614 -0.0625 7.6875 C-0.05798828 6.94693359 -0.05347656 6.20636719 -0.04882812 5.44335938 C-0.03712175 3.62887101 -0.01918898 1.81442466 0 0 Z " fill="#E21DD2" transform="translate(347,187)"/>
<path d="M0 0 C0.75 1.625 0.75 1.625 1 4 C-0.5 7.25 -0.5 7.25 -3 10 C-6.75 10.375 -6.75 10.375 -10 10 C-6.66666667 6.66666667 -3.33333333 3.33333333 0 0 Z " fill="#424BBB" transform="translate(206,229)"/>
<path d="M0 0 C0.33 0 0.66 0 1 0 C1.33 1.65 1.66 3.3 2 5 C4.31 5 6.62 5 9 5 C8.649375 5.61875 8.29875 6.2375 7.9375 6.875 C7.4734375 7.926875 7.4734375 7.926875 7 9 C7.33 9.66 7.66 10.32 8 11 C6.68 11.33 5.36 11.66 4 12 C1.02449969 8.9315153 0.03525487 7.53763669 -0.25 3.1875 C-0.1675 2.135625 -0.085 1.08375 0 0 Z " fill="#65A1E9" transform="translate(197,169)"/>
<path d="M0 0 C3.48864279 0.36089408 6.09032693 2.1410422 9 4 C6.6875 6.0625 6.6875 6.0625 4 8 C3.01 7.67 2.02 7.34 1 7 C1 5.68 1 4.36 1 3 C0.01 2.67 -0.98 2.34 -2 2 C-1.34 1.34 -0.68 0.68 0 0 Z " fill="#C1019D" transform="translate(326,163)"/>
<path d="M0 0 C3.79588866 0.54226981 5.47211993 2.20127563 8 5 C7.67 5.99 7.34 6.98 7 8 C5.35 8 3.7 8 2 8 C0.23537317 4.91190305 0 3.76687864 0 0 Z " fill="#F713D6" transform="translate(360,176)"/>
<path d="M0 0 C2.33333333 0 4.66666667 0 7 0 C5.63016497 3.16115776 5.0109362 3.9927092 2 6 C-0.04296875 6.1953125 -0.04296875 6.1953125 -2.1875 6.125 C-4.0746875 6.063125 -4.0746875 6.063125 -6 6 C-6 5.34 -6 4.68 -6 4 C-4.35 3.67 -2.7 3.34 -1 3 C-0.67 2.01 -0.34 1.02 0 0 Z " fill="#7570CA" transform="translate(209,176)"/>
<path d="M0 0 C0.33 0 0.66 0 1 0 C1 1.98 1 3.96 1 6 C3.64 6 6.28 6 9 6 C8.67 6.66 8.34 7.32 8 8 C8.99 8.66 9.98 9.32 11 10 C8.69 10.66 6.38 11.32 4 12 C1.02449969 8.9315153 0.03525487 7.53763669 -0.25 3.1875 C-0.1675 2.135625 -0.085 1.08375 0 0 Z " fill="#749EE3" transform="translate(169,169)"/>
<path d="M0 0 C-0.33 0.99 -0.66 1.98 -1 3 C-1.66 3 -2.32 3 -3 3 C-3.33 3.99 -3.66 4.98 -4 6 C-10.625 7.25 -10.625 7.25 -14 5 C-12.61217515 4.1533966 -11.21430603 3.32324661 -9.8125 2.5 C-9.03519531 2.0359375 -8.25789062 1.571875 -7.45703125 1.09375 C-4.75896614 -0.10729647 -2.9193018 -0.20741043 0 0 Z " fill="#5668D5" transform="translate(244,173)"/>
<path d="M0 0 C2.3223428 2.8762349 3.86565842 5.63780422 5.25 9.0625 C5.60578125 9.91972656 5.9615625 10.77695313 6.328125 11.66015625 C7 14 7 14 6 17 C5.0234375 15.27473958 4.046875 13.54947917 3.0703125 11.82421875 C2.10571419 10.18017711 1.05732941 8.58599412 0 7 C-0.07905064 4.66800612 -0.08798769 2.33167378 0 0 Z " fill="#85C0EA" transform="translate(284,126)"/>
<path d="M0 0 C0.66 0 1.32 0 2 0 C2 0.66 2 1.32 2 2 C3.65 2 5.3 2 7 2 C6.67 3.32 6.34 4.64 6 6 C3.13444648 4.87114558 0.31334952 3.69345961 -2.5 2.4375 C-5.40727333 1.24344131 -7.9127345 0.4677675 -11 0 C-11 -0.33 -11 -0.66 -11 -1 C-3.79029463 -2.3864818 -3.79029463 -2.3864818 0 0 Z " fill="#C573E6" transform="translate(354,297)"/>
<path d="M0 0 C6.27 1.32 12.54 2.64 19 4 C19 4.33 19 4.66 19 5 C12.23405981 5.11381955 5.71162938 4.88021369 -1 4 C-0.67 2.68 -0.34 1.36 0 0 Z " fill="#E003AD" transform="translate(263,192)"/>
<path d="M0 0 C3.96 0.33 7.92 0.66 12 1 C12 1.99 12 2.98 12 4 C10.68 4 9.36 4 8 4 C7.67 4.66 7.34 5.32 7 6 C2.25 4.125 2.25 4.125 0 3 C0 2.01 0 1.02 0 0 Z " fill="#ED09C8" transform="translate(330,162)"/>
<path d="M0 0 C1.32 0.66 2.64 1.32 4 2 C5.1577506 5.47325181 5.06866652 8.36067448 5 12 C4.67 10.68 4.34 9.36 4 8 C2.35 8.66 0.7 9.32 -1 10 C-0.67 6.7 -0.34 3.4 0 0 Z " fill="#6F9BE1" transform="translate(212,164)"/>
<path d="M0 0 C0.66 0 1.32 0 2 0 C6 5.41176471 6 5.41176471 6 8 C4.68 8 3.36 8 2 8 C1.67 9.65 1.34 11.3 1 13 C0.67 13 0.34 13 0 13 C0 8.71 0 4.42 0 0 Z " fill="#A12D9F" transform="translate(239,254)"/>
<path d="M0 0 C1.5 1.25 1.5 1.25 3 3 C3 4.32 3 5.64 3 7 C1.35 7.33 -0.3 7.66 -2 8 C-2 7.34 -2 6.68 -2 6 C-3.65 5.67 -5.3 5.34 -7 5 C-4.35261084 3.5393715 -3.10551666 3 0 3 C0 2.01 0 1.02 0 0 Z " fill="#C133E8" transform="translate(349,263)"/>
<path d="M0 0 C0 0.99 0 1.98 0 3 C-4.95 4.485 -4.95 4.485 -10 6 C-9.67 4.35 -9.34 2.7 -9 1 C-6.04335481 -0.4783226 -3.25770263 -0.06032783 0 0 Z " fill="#06AFF1" transform="translate(211,164)"/>
<path d="M0 0 C1.32 0.33 2.64 0.66 4 1 C2.5 3 2.5 3 0 5 C-2.75871627 5.35800135 -5.20097524 5.18660165 -8 5 C-7.67 4.01 -7.34 3.02 -7 2 C-4.69 2 -2.38 2 0 2 C0 1.34 0 0.68 0 0 Z " fill="#7370CA" transform="translate(183,177)"/>
<path d="M0 0 C4.20626034 1.50223584 5.73900021 4.28550034 8 8 C6.824375 7.9690625 6.824375 7.9690625 5.625 7.9375 C3.01885039 7.81315937 3.01885039 7.81315937 1 9 C0.34 8.67 -0.32 8.34 -1 8 C-1 7.34 -1 6.68 -1 6 C-0.34 6 0.32 6 1 6 C0.67 4.02 0.34 2.04 0 0 Z " fill="#A1038F" transform="translate(335,168)"/>
<path d="M0 0 C2.97 0 5.94 0 9 0 C8.01 0.7734375 8.01 0.7734375 7 1.5625 C3.24666356 4.61208585 -0.37602035 7.7986681 -4 11 C-4.33 10.01 -4.66 9.02 -5 8 C-0.25 4 -0.25 4 2 4 C2 3.01 2 2.02 2 1 C1.34 0.67 0.68 0.34 0 0 Z " fill="#10B7F9" transform="translate(163,106)"/>
<path d="M0 0 C0.33 1.65 0.66 3.3 1 5 C1.66 5 2.32 5 3 5 C2.67 6.32 2.34 7.64 2 9 C0.948125 7.8553125 0.948125 7.8553125 -0.125 6.6875 C-2.96352604 4.03409522 -5.46949051 2.55999257 -9 1 C-9 0.67 -9 0.34 -9 0 C-3.375 -1.125 -3.375 -1.125 0 0 Z " fill="#4FB5E7" transform="translate(256,135)"/>
<path d="M0 0 C1 3 1 3 -0.25 5.5625 C-2 8 -2 8 -5 10 C-5 8.68 -5 7.36 -5 6 C-4.34 5.67 -3.68 5.34 -3 5 C-2.34786708 2.97536745 -2.34786708 2.97536745 -2 1 C-2.78375 1.515625 -3.5675 2.03125 -4.375 2.5625 C-5.24125 3.036875 -6.1075 3.51125 -7 4 C-7.66 3.67 -8.32 3.34 -9 3 C-6.38997624 -0.48003168 -4.1689578 -0.27793052 0 0 Z " fill="#0E82DA" transform="translate(174,108)"/>
<path d="M0 0 C2.31 0.66 4.62 1.32 7 2 C7.33 3.98 7.66 5.96 8 8 C7.01 8 6.02 8 5 8 C0 2.65116279 0 2.65116279 0 0 Z " fill="#EA51DE" transform="translate(215,272)"/>
<path d="M0 0 C0.33 0.99 0.66 1.98 1 3 C-0.423125 3.928125 -0.423125 3.928125 -1.875 4.875 C-4.94445109 6.81970969 -4.94445109 6.81970969 -7 9 C-7.99 8.67 -8.98 8.34 -10 8 C-10 7.67 -10 7.34 -10 7 C-10.66 6.67 -11.32 6.34 -12 6 C-10.3767313 5.3291288 -8.75132422 4.66342971 -7.125 4 C-6.22007812 3.62875 -5.31515625 3.2575 -4.3828125 2.875 C-2 2 -2 2 0 2 C0 1.34 0 0.68 0 0 Z " fill="#487CE2" transform="translate(186,169)"/>
<path d="M0 0 C0.66 0.33 1.32 0.66 2 1 C2 2.32 2 3.64 2 5 C0.02 5.33 -1.96 5.66 -4 6 C-4 6.66 -4 7.32 -4 8 C-7.52948291 9.66670026 -9.28272326 10.13583456 -13 9 C-11.21118264 7.99491199 -9.41885304 6.99607264 -7.625 6 C-6.62726563 5.443125 -5.62953125 4.88625 -4.6015625 4.3125 C-2 3 -2 3 0 3 C0 2.01 0 1.02 0 0 Z " fill="#3292E8" transform="translate(240,165)"/>
<path d="M0 0 C-1.32 1.32 -2.64 2.64 -4 4 C-4.99 3.34 -5.98 2.68 -7 2 C-7.33 3.32 -7.66 4.64 -8 6 C-8.66 6 -9.32 6 -10 6 C-10.1875 3.625 -10.1875 3.625 -10 1 C-6.1496895 -1.56687367 -4.41430237 -0.83288724 0 0 Z " fill="#F208BB" transform="translate(270,196)"/>
<path d="M0 0 C0.33 0.66 0.66 1.32 1 2 C0.06421005 4.35981813 -0.93347808 6.69631264 -2 9 C-1.071875 8.505 -0.14375 8.01 0.8125 7.5 C4 6 4 6 7 6 C2.69230769 9.93846154 2.69230769 9.93846154 -0.8125 10.25 C-1.534375 10.1675 -2.25625 10.085 -3 10 C-3.29296875 3.9453125 -3.29296875 3.9453125 -3 2 C-2.01 1.34 -1.02 0.68 0 0 Z " fill="#30A7E5" transform="translate(173,165)"/>
<path d="M0 0 C1.13199353 0.9080162 2.25532363 1.82683826 3.375 2.75 C4.00148438 3.26046875 4.62796875 3.7709375 5.2734375 4.296875 C7.08312318 6.08199481 8.00117455 7.67949644 9 10 C6.03 9.505 6.03 9.505 3 9 C3 7.35 3 5.7 3 4 C2.01 4 1.02 4 0 4 C0 2.68 0 1.36 0 0 Z " fill="#5DB3E6" transform="translate(275,116)"/>
<path d="M0 0 C0.66 0 1.32 0 2 0 C2 0.66 2 1.32 2 2 C5.58327753 3.00217064 5.58327753 3.00217064 9 2 C9.33 3.32 9.66 4.64 10 6 C8.35 6.33 6.7 6.66 5 7 C0 1.125 0 1.125 0 0 Z " fill="#C57CE7" transform="translate(367,310)"/>
<path d="M0 0 C2.475 0.99 2.475 0.99 5 2 C4.67 2.66 4.34 3.32 4 4 C5.32 4.66 6.64 5.32 8 6 C6 7 6 7 2.4375 6.25 C1.303125 5.8375 0.16875 5.425 -1 5 C-1.33 4.01 -1.66 3.02 -2 2 C-1.34 2 -0.68 2 0 2 C0 1.34 0 0.68 0 0 Z " fill="#E33CD9" transform="translate(227,281)"/>
<path d="M0 0 C1.65 0 3.3 0 5 0 C4.01 0.495 4.01 0.495 3 1 C3.185625 1.70125 3.37125 2.4025 3.5625 3.125 C4.05156976 6.33888698 3.66231558 8.83560336 3 12 C2.01 12 1.02 12 0 12 C0.08378906 11.38511719 0.16757813 10.77023437 0.25390625 10.13671875 C0.35574219 9.32847656 0.45757812 8.52023437 0.5625 7.6875 C0.66691406 6.88699219 0.77132812 6.08648437 0.87890625 5.26171875 C1.14755178 2.83182884 1.14755178 2.83182884 0 0 Z " fill="#B116B6" transform="translate(252,267)"/>
<path d="M0 0 C1.48034764 0.47550561 2.95925021 0.95551216 4.4375 1.4375 C5.26121094 1.70433594 6.08492187 1.97117187 6.93359375 2.24609375 C9 3 9 3 10 4 C11.84891946 4.23363881 13.70488031 4.41303635 15.5625 4.5625 C17.08037109 4.68818359 17.08037109 4.68818359 18.62890625 4.81640625 C19.80259766 4.90728516 19.80259766 4.90728516 21 5 C21 5.33 21 5.66 21 6 C16.71 6 12.42 6 8 6 C8 5.34 8 4.68 8 4 C6.02 4 4.04 4 2 4 C1.34 2.68 0.68 1.36 0 0 Z " fill="#C45AC2" transform="translate(245,261)"/>
<path d="M0 0 C0.99 0 1.98 0 3 0 C2.44449305 3.59905908 1.25112752 4.99909799 -1.5625 7.25 C-2.20316406 7.77078125 -2.84382813 8.2915625 -3.50390625 8.828125 C-3.99761719 9.21484375 -4.49132812 9.6015625 -5 10 C-5.66 9.67 -6.32 9.34 -7 9 C-6.505 8.54625 -6.01 8.0925 -5.5 7.625 C-3.77390663 6.12364481 -3.77390663 6.12364481 -4 4 C-2.68 4 -1.36 4 0 4 C0 2.68 0 1.36 0 0 Z " fill="#EF56D7" transform="translate(275,223)"/>
<path d="M0 0 C1.16659166 3.49977498 0.68403157 5.42783513 0 9 C0 9.66 0 10.32 0 11 C-1.32 11 -2.64 11 -4 11 C-4.6875 9.1875 -4.6875 9.1875 -5 7 C-3.6875 5.5 -3.6875 5.5 -2 4 C-0.82425289 1.90010348 -0.82425289 1.90010348 0 0 Z " fill="#107FDA" transform="translate(169,122)"/>
<path d="M0 0 C0.66 0.33 1.32 0.66 2 1 C1.26829419 2.34345985 0.51394247 3.67460584 -0.25 5 C-0.87648437 6.11375 -0.87648437 6.11375 -1.515625 7.25 C-2.00546875 7.8275 -2.4953125 8.405 -3 9 C-4.32 9 -5.64 9 -7 9 C-5.44499019 5.18315774 -2.96404505 2.80804268 0 0 Z " fill="#58D2F3" transform="translate(140,114)"/>
<path d="M0 0 C0.99 0.33 1.98 0.66 3 1 C2.34 1 1.68 1 1 1 C1.33 1.66 1.66 2.32 2 3 C2.99 3.33 3.98 3.66 5 4 C5.6875 6.0625 5.6875 6.0625 6 8 C3 8 3 8 1.61328125 6.6875 C0.40885417 5.125 -0.79557292 3.5625 -2 2 C-1.34 2 -0.68 2 0 2 C0 1.34 0 0.68 0 0 Z " fill="#C26AE7" transform="translate(362,301)"/>
<path d="M0 0 C0.66 0 1.32 0 2 0 C-0.14117647 6.09411765 -0.14117647 6.09411765 -3 8 C-5.6875 7.6875 -5.6875 7.6875 -8 7 C-5.53721199 4.53721199 -3.29323018 4.00228745 0 3 C0 2.01 0 1.02 0 0 Z " fill="#89AFDF" transform="translate(131,253)"/>
<path d="M0 0 C3.81684226 1.55500981 6.19195732 4.03595495 9 7 C8.67 7.66 8.34 8.32 8 9 C7.34 9 6.68 9 6 9 C1.26923077 3.80769231 1.26923077 3.80769231 0 0 Z " fill="#ED6DD9" transform="translate(358,170)"/>
<path d="M0 0 C2.31 0 4.62 0 7 0 C6.34 1.32 5.68 2.64 5 4 C3.02 4 1.04 4 -1 4 C-0.67 2.68 -0.34 1.36 0 0 Z " fill="#02AFF7" transform="translate(174,165)"/>
<path d="M0 0 C0.66 0 1.32 0 2 0 C2.66 2.31 3.32 4.62 4 7 C6.97 7.495 6.97 7.495 10 8 C10 8.33 10 8.66 10 9 C7.36 9 4.72 9 2 9 C2 8.01 2 7.02 2 6 C1.34 6 0.68 6 0 6 C0 4.02 0 2.04 0 0 Z " fill="#B910A2" transform="translate(242,230)"/>
<path d="M0 0 C-1 3 -1 3 -4 5 C-5.9896995 5.39013716 -7.99019869 5.73202649 -10 6 C-9 3 -9 3 -6.125 1.3125 C-3 0 -3 0 0 0 Z " fill="#388EEA" transform="translate(212,169)"/>
<path d="M0 0 C0.66 0.66 1.32 1.32 2 2 C1.6875 4.3125 1.6875 4.3125 1 7 C0.814375 7.928125 0.62875 8.85625 0.4375 9.8125 C0.293125 10.534375 0.14875 11.25625 0 12 C-2.09350689 8.5980513 -2.17942163 5.94727588 -2 2 C-1.34 2 -0.68 2 0 2 C0 1.34 0 0.68 0 0 Z " fill="#27A7EB" transform="translate(261,138)"/>
<path d="M0 0 C0.99 0 1.98 0 3 0 C3.33 2.97 3.66 5.94 4 9 C2.35 9.33 0.7 9.66 -1 10 C-0.649375 9.46375 -0.29875 8.9275 0.0625 8.375 C1.28924249 5.26725237 0.72856431 3.20568297 0 0 Z " fill="#2E96E9" transform="translate(281,126)"/>
<path d="M0 0 C0.33 0 0.66 0 1 0 C1 3.3 1 6.6 1 10 C-0.65 10 -2.3 10 -4 10 C-2.68 6.7 -1.36 3.4 0 0 Z " fill="#5133AE" transform="translate(207,229)"/>
<path d="M0 0 C0.33 0 0.66 0 1 0 C1 1.98 1 3.96 1 6 C2.98 5.01 4.96 4.02 7 3 C7 3.99 7 4.98 7 6 C4 8 4 8 0 8 C0 5.36 0 2.72 0 0 Z " fill="#4288E2" transform="translate(124,250)"/>
<path d="M0 0 C3.63 0 7.26 0 11 0 C11 2.31 11 4.62 11 7 C10.76539063 6.36578125 10.53078125 5.7315625 10.2890625 5.078125 C9.17709092 2.81749261 9.17709092 2.81749261 6.8359375 2.171875 C5.61777344 1.96304688 5.61777344 1.96304688 4.375 1.75 C3.55773437 1.60046875 2.74046875 1.4509375 1.8984375 1.296875 C1.27195312 1.19890625 0.64546875 1.1009375 0 1 C0 0.67 0 0.34 0 0 Z " fill="#9D0583" transform="translate(280,191)"/>
<path d="M0 0 C0.99 0.33 1.98 0.66 3 1 C3.1953125 7.0546875 3.1953125 7.0546875 3 9 C2.34 9.66 1.68 10.32 1 11 C0.83197949 9.54182203 0.66562857 8.0834516 0.5 6.625 C0.4071875 5.81289062 0.314375 5.00078125 0.21875 4.1640625 C0 2 0 2 0 0 Z " fill="#7F93D6" transform="translate(186,167)"/>
<path d="M0 0 C0 0.99 0 1.98 0 3 C-0.99 3 -1.98 3 -3 3 C-3 2.34 -3 1.68 -3 1 C-6.3 1 -9.6 1 -13 1 C-13 0.67 -13 0.34 -13 0 C-8.37078475 -1.0161692 -4.65537393 -0.83796731 0 0 Z " fill="#EB45CE" transform="translate(345,162)"/>
<path d="M0 0 C0.99 0 1.98 0 3 0 C3 1.65 3 3.3 3 5 C3.66 5.33 4.32 5.66 5 6 C4.01 6.66 3.02 7.32 2 8 C-0.1519437 4.77208445 -0.20086443 3.71599191 0 0 Z " fill="#118AD8" transform="translate(261,145)"/>
<path d="M0 0 C2.64 0 5.28 0 8 0 C9.42944945 2.35438733 10.08661261 3.48032433 9.625 6.25 C9.41875 6.8275 9.2125 7.405 9 8 C8.34 8 7.68 8 7 8 C7 5.69 7 3.38 7 1 C4.69 1 2.38 1 0 1 C0 0.67 0 0.34 0 0 Z " fill="#D93CBA" transform="translate(282,196)"/>
<path d="M0 0 C-1.2491742 3.45925163 -2.67527795 6.14693203 -5 9 C-5.36666667 3.5 -5.36666667 3.5 -3.625 1.125 C-2 0 -2 0 0 0 Z " fill="#6895CA" transform="translate(159,138)"/>
<path d="M0 0 C0.66 0.33 1.32 0.66 2 1 C2 2.32 2 3.64 2 5 C2.66 5.66 3.32 6.32 4 7 C2.02 7.99 2.02 7.99 0 9 C-0.87890625 2.84765625 -0.87890625 2.84765625 -1 1 C-0.67 0.67 -0.34 0.34 0 0 Z " fill="#EC1BD6" transform="translate(222,272)"/>
<path d="M0 0 C0.66 0 1.32 0 2 0 C2.33 0.99 2.66 1.98 3 3 C2.1028125 3.1546875 2.1028125 3.1546875 1.1875 3.3125 C-1.28243264 4.08876455 -2.32251235 5.07088921 -4 7 C-4.66 6.67 -5.32 6.34 -6 6 C-4 4 -2 2 0 0 Z " fill="#4B79DD" transform="translate(209,172)"/>
<path d="M0 0 C1.2065625 0.0309375 1.2065625 0.0309375 2.4375 0.0625 C2.4375 0.7225 2.4375 1.3825 2.4375 2.0625 C1.4475 2.3925 0.4575 2.7225 -0.5625 3.0625 C-0.8925 4.0525 -1.2225 5.0425 -1.5625 6.0625 C-2.2225 6.0625 -2.8825 6.0625 -3.5625 6.0625 C-3.605221 4.39638095 -3.60313832 2.72867115 -3.5625 1.0625 C-2.5625 0.0625 -2.5625 0.0625 0 0 Z " fill="#5B33B1" transform="translate(265.5625,161.9375)"/>
<path d="M0 0 C3.93673644 1.31224548 6.22719294 2.91910327 9 6 C6.69 5.34 4.38 4.68 2 4 C2 3.34 2 2.68 2 2 C1.34 2 0.68 2 0 2 C0 1.34 0 0.68 0 0 Z " fill="#62C0E8" transform="translate(266,110)"/>
<path d="M0 0 C0 0.99 0 1.98 0 3 C-0.639375 3.103125 -1.27875 3.20625 -1.9375 3.3125 C-2.618125 3.539375 -3.29875 3.76625 -4 4 C-4.33 4.99 -4.66 5.98 -5 7 C-5.33 5.02 -5.66 3.04 -6 1 C-4 0 -4 0 0 0 Z " fill="#3F8AE6" transform="translate(142,241)"/>
<path d="M0 0 C-1.44253657 3.36591866 -3.33264727 5.51047079 -6 8 C-5.42415568 5.61435923 -4.77772405 3.33317216 -4 1 C-2 0 -2 0 0 0 Z " fill="#ED62D7" transform="translate(285,216)"/>
<path d="M0 0 C2.91227269 3.28804981 4.49701212 5.59885603 5 10 C1.32769295 6.92000054 0.43197635 4.7517398 0 0 Z " fill="#E779DB" transform="translate(370,183)"/>
<path d="M0 0 C3 2 3 2 4 5 C1.69 5 -0.62 5 -3 5 C-2.01 3.35 -1.02 1.7 0 0 Z " fill="#B3079F" transform="translate(329,184)"/>
<path d="M0 0 C2.35448165 2.55068845 2.98327924 3.71017358 3.1875 7.25 C3.125625 8.1575 3.06375 9.065 3 10 C1.5 8.9375 1.5 8.9375 0 7 C-0.1875 3.3125 -0.1875 3.3125 0 0 Z " fill="#65ABE2" transform="translate(284,126)"/>
<path d="M0 0 C2.97 0.33 5.94 0.66 9 1 C7.68 1.99 6.36 2.98 5 4 C1.125 2.25 1.125 2.25 0 0 Z " fill="#F242D7" transform="translate(259,232)"/>
<path d="M0 0 C2.97 0 5.94 0 9 0 C9 0.99 9 1.98 9 3 C8.01 3 7.02 3 6 3 C6 2.34 6 1.68 6 1 C4.02 1.33 2.04 1.66 0 2 C0 1.34 0 0.68 0 0 Z " fill="#FB08CB" transform="translate(333,163)"/>
<path d="M0 0 C-2.06756277 2.7972908 -3.14440371 3.02692273 -6.6875 3.6875 C-7.780625 3.790625 -8.87375 3.89375 -10 4 C-10 3.34 -10 2.68 -10 2 C-6.5980513 -0.09350689 -3.94727588 -0.17942163 0 0 Z " fill="#80DCF1" transform="translate(182,162)"/>
<path d="M0 0 C1.32 0 2.64 0 4 0 C4 0.99 4 1.98 4 3 C4.66 3.33 5.32 3.66 6 4 C4.02 4.33 2.04 4.66 0 5 C0 3.35 0 1.7 0 0 Z " fill="#3E58BF" transform="translate(262,158)"/>
<path d="M0 0 C0.99 0.33 1.98 0.66 3 1 C3 1.33 3 1.66 3 2 C4.65 2.33 6.3 2.66 8 3 C8 3.33 8 3.66 8 4 C4.37 4 0.74 4 -3 4 C-2.01 3.01 -1.02 2.02 0 1 C0 0.67 0 0.34 0 0 Z " fill="#0C8DD9" transform="translate(173,130)"/>
<path d="M0 0 C1.32 0 2.64 0 4 0 C4.66 0.66 5.32 1.32 6 2 C6.66 2 7.32 2 8 2 C7.67 2.99 7.34 3.98 7 5 C4.11562221 3.70700306 2.12780579 2.34058637 0 0 Z " fill="#9413A7" transform="translate(248,286)"/>
<path d="M0 0 C1.99097846 2.98646769 2.94124926 5.59687262 4 9 C3.01 9 2.02 9 1 9 C0.67 6.03 0.34 3.06 0 0 Z " fill="#CE22CB" transform="translate(240,272)"/>
<path d="M0 0 C1.32 0 2.64 0 4 0 C4.33 0.99 4.66 1.98 5 3 C4.01 4.485 4.01 4.485 3 6 C1.5 4.6875 1.5 4.6875 0 3 C0 2.01 0 1.02 0 0 Z " fill="#9A0D9D" transform="translate(242,262)"/>
<path d="M0 0 C2.0625 0.4375 2.0625 0.4375 4 1 C4 1.99 4 2.98 4 4 C2.02 4.99 2.02 4.99 0 6 C-0.38218767 4.34385343 -0.71395102 2.67542976 -1 1 C-0.67 0.67 -0.34 0.34 0 0 Z " fill="#639DE3" transform="translate(138,243)"/>
<path d="M0 0 C2.97 0 5.94 0 9 0 C7.35 1.65 5.7 3.3 4 5 C4 3.68 4 2.36 4 1 C2.68 0.67 1.36 0.34 0 0 Z " fill="#3694E1" transform="translate(154,210)"/>
<path d="M0 0 C2.475 0.495 2.475 0.495 5 1 C5 1.66 5 2.32 5 3 C5.66 3.33 6.32 3.66 7 4 C5.1875 4.6875 5.1875 4.6875 3 5 C1.25 3.6875 1.25 3.6875 0 2 C0 1.34 0 0.68 0 0 Z " fill="#7D9CDB" transform="translate(198,176)"/>
<path d="M0 0 C0.66 1.32 1.32 2.64 2 4 C0.68 4.99 -0.64 5.98 -2 7 C-2.125 4.625 -2.125 4.625 -2 2 C-1.34 1.34 -0.68 0.68 0 0 Z " fill="#7D73CE" transform="translate(242,174)"/>
<path d="M0 0 C2.62187494 1.04874998 3.79371361 1.64931313 5.25 4.125 C5.4975 4.74375 5.745 5.3625 6 6 C4.125 5.8125 4.125 5.8125 2 5 C0.75 2.4375 0.75 2.4375 0 0 Z " fill="#AF0196" transform="translate(335,168)"/>
<path d="M0 0 C1.65 0.33 3.3 0.66 5 1 C4.34 2.32 3.68 3.64 3 5 C2.67 4.34 2.34 3.68 2 3 C1.01 3.33 0.02 3.66 -1 4 C-0.67 2.68 -0.34 1.36 0 0 Z " fill="#5487CF" transform="translate(157,135)"/>
<path d="M0 0 C0.33 0.66 0.66 1.32 1 2 C1.66 2 2.32 2 3 2 C2.34 4.64 1.68 7.28 1 10 C0.67 10 0.34 10 0 10 C0 6.7 0 3.4 0 0 Z " fill="#3565CC" transform="translate(155,129)"/>
<path d="M0 0 C1.60031344 3.20062687 0.03173691 5.72271806 -1 9 C-1.66 8.01 -2.32 7.02 -3 6 C-1.65517241 1.65517241 -1.65517241 1.65517241 0 0 Z " fill="#3DC8EE" transform="translate(132,123)"/>
</svg>
